<svg width="229" height="160" viewBox="0 0 229 160" fill="none" xmlns="http://www.w3.org/2000/svg">
<rect x="83" y="42.0352" width="96.6213" height="4" rx="2" transform="rotate(-37.6621 83 42.0352)" fill="#FEEB61"/>
<rect x="214" y="88.0352" width="96.6213" height="4" rx="2" transform="rotate(-37.6621 214 88.0352)" fill="#FEEB61"/>
<rect x="185.002" y="112.898" width="30.9318" height="4" rx="2" transform="rotate(-37.6621 185.002 112.898)" fill="#FEEB61"/>
<rect y="106.035" width="96.6213" height="4" rx="2" transform="rotate(-37.6621 0 106.035)" fill="#FEEB61"/>
<rect x="48" y="52.0352" width="96.6213" height="4" rx="2" transform="rotate(-37.6621 48 52.0352)" fill="#FEEB61"/>
<rect x="26" y="52.0352" width="96.6213" height="4" rx="2" transform="rotate(-37.6621 26 52.0352)" fill="#FEEB61"/>
<rect x="147" y="124.035" width="96.6213" height="4" rx="2" transform="rotate(-37.6621 147 124.035)" fill="#FEEB61"/>
<rect x="195" y="70.0352" width="96.6213" height="4" rx="2" transform="rotate(-37.6621 195 70.0352)" fill="#FEEB61"/>
<rect x="209.002" y="144.898" width="30.9318" height="4" rx="2" transform="rotate(-37.6621 209.002 144.898)" fill="#FEEB61"/>
<rect x="171" y="156.035" width="96.6213" height="4" rx="2" transform="rotate(-37.6621 171 156.035)" fill="#FEEB61"/>
<rect x="207" y="112.035" width="96.6213" height="4" rx="2" transform="rotate(-37.6621 207 112.035)" fill="#FEEB61"/>
<rect x="135" y="51.0352" width="96.6213" height="4" rx="2" transform="rotate(-37.6621 135 51.0352)" fill="#FEEB61"/>
<rect x="123.845" y="60.584" width="5.86557" height="4" rx="2" transform="rotate(-37.6621 123.845 60.584)" fill="#FEEB61"/>
<rect x="70.4932" y="103.164" width="60.8243" height="4" rx="2" transform="rotate(-37.6621 70.4932 103.164)" fill="#FEEB61"/>
<rect x="134" y="102.164" width="60.8243" height="4" rx="2" transform="rotate(-37.6621 134 102.164)" fill="#FEEB61"/>
<rect x="152" y="5.19531" width="129.617" height="4" rx="2" transform="rotate(-37.6621 152 5.19531)" fill="#FEEB61"/>
<rect x="135" y="36.1953" width="129.617" height="4" rx="2" transform="rotate(-37.6621 135 36.1953)" fill="#FEEB61"/>
<rect x="26" y="119.195" width="129.617" height="4" rx="2" transform="rotate(-37.6621 26 119.195)" fill="#FEEB61"/>
<rect x="48" y="135.449" width="174.222" height="4" rx="2" transform="rotate(-37.6621 48 135.449)" fill="#FEEB61"/>
<rect x="199" y="51.0352" width="96.6213" height="4" rx="2" transform="rotate(-37.6621 199 51.0352)" fill="#FEEB61"/>
<rect x="187.845" y="60.584" width="5.86557" height="4" rx="2" transform="rotate(-37.6621 187.845 60.584)" fill="#FEEB61"/>
<rect x="194" y="23.1953" width="129.617" height="4" rx="2" transform="rotate(-37.6621 194 23.1953)" fill="#FEEB61"/>
<rect x="199" y="36.1953" width="129.617" height="4" rx="2" transform="rotate(-37.6621 199 36.1953)" fill="#FEEB61"/>
<rect x="90" y="119.195" width="129.617" height="4" rx="2" transform="rotate(-37.6621 90 119.195)" fill="#FEEB61"/>
<rect x="44" y="88.1953" width="129.617" height="4" rx="2" transform="rotate(-37.6621 44 88.1953)" fill="#FEEB61"/>
</svg>
