<svg width="217" height="114" viewBox="0 0 217 114" fill="none" xmlns="http://www.w3.org/2000/svg">
<rect width="96.6213" height="4" rx="2" transform="matrix(-0.791628 -0.611004 -0.611004 0.791628 134 116.035)" fill="#FEEB61"/>
<rect width="96.6213" height="4" rx="2" transform="matrix(-0.791628 -0.611004 -0.611004 0.791628 3 162.035)" fill="#FEEB61"/>
<rect width="96.6213" height="4" rx="2" transform="matrix(-0.791628 -0.611004 -0.611004 0.791628 169 126.035)" fill="#FEEB61"/>
<rect width="96.6213" height="4" rx="2" transform="matrix(-0.791628 -0.611004 -0.611004 0.791628 191 126.035)" fill="#FEEB61"/>
<rect width="96.6213" height="4" rx="2" transform="matrix(-0.791628 -0.611004 -0.611004 0.791628 22 144.035)" fill="#FEEB61"/>
<rect width="96.6213" height="4" rx="2" transform="matrix(-0.791628 -0.611004 -0.611004 0.791628 82 125.035)" fill="#FEEB61"/>
<rect width="129.617" height="4" rx="2" transform="matrix(-0.791628 -0.611004 -0.611004 0.791628 65 79.1953)" fill="#FEEB61"/>
<rect width="129.617" height="4" rx="2" transform="matrix(-0.791628 -0.611004 -0.611004 0.791628 82 110.195)" fill="#FEEB61"/>
<rect width="174.222" height="4" rx="2" transform="matrix(-0.791628 -0.611004 -0.611004 0.791628 169 209.449)" fill="#FEEB61"/>
<rect width="96.6213" height="4" rx="2" transform="matrix(-0.791628 -0.611004 -0.611004 0.791628 18 125.035)" fill="#FEEB61"/>
<rect width="129.617" height="4" rx="2" transform="matrix(-0.791628 -0.611004 -0.611004 0.791628 23 97.1953)" fill="#FEEB61"/>
<rect width="129.617" height="4" rx="2" transform="matrix(-0.791628 -0.611004 -0.611004 0.791628 18 110.195)" fill="#FEEB61"/>
<rect width="129.617" height="4" rx="2" transform="matrix(-0.791628 -0.611004 -0.611004 0.791628 173 162.195)" fill="#FEEB61"/>
</svg>
