<svg width="199" height="90" viewBox="0 0 199 90" fill="none" xmlns="http://www.w3.org/2000/svg">
<rect x="185.002" y="43.8984" width="30.9318" height="4" rx="2" transform="rotate(-37.6621 185.002 43.8984)" fill="#FEEB61"/>
<rect y="37.0352" width="96.6213" height="4" rx="2" transform="rotate(-37.6621 0 37.0352)" fill="#FEEB61"/>
<rect x="147" y="55.0352" width="96.6213" height="4" rx="2" transform="rotate(-37.6621 147 55.0352)" fill="#FEEB61"/>
<rect x="195" y="1.03516" width="96.6213" height="4" rx="2" transform="rotate(-37.6621 195 1.03516)" fill="#FEEB61"/>
<rect x="171" y="87.0352" width="96.6213" height="4" rx="2" transform="rotate(-37.6621 171 87.0352)" fill="#FEEB61"/>
<rect x="70.4932" y="34.1641" width="60.8243" height="4" rx="2" transform="rotate(-37.6621 70.4932 34.1641)" fill="#FEEB61"/>
<rect x="134" y="33.1641" width="60.8243" height="4" rx="2" transform="rotate(-37.6621 134 33.1641)" fill="#FEEB61"/>
<rect x="26" y="50.1953" width="129.617" height="4" rx="2" transform="rotate(-37.6621 26 50.1953)" fill="#FEEB61"/>
<rect x="48" y="66.4492" width="174.222" height="4" rx="2" transform="rotate(-37.6621 48 66.4492)" fill="#FEEB61"/>
<rect x="90" y="50.1953" width="129.617" height="4" rx="2" transform="rotate(-37.6621 90 50.1953)" fill="#FEEB61"/>
<rect x="44" y="19.1953" width="129.617" height="4" rx="2" transform="rotate(-37.6621 44 19.1953)" fill="#FEEB61"/>
</svg>
