<svg width="40" height="40" viewBox="0 0 40 40" fill="none" xmlns="http://www.w3.org/2000/svg">
<circle cx="20" cy="20" r="20" fill="white"/>
<g clip-path="url(#clip0_118_15217)">
<mask id="mask0_118_15217" style="mask-type:luminance" maskUnits="userSpaceOnUse" x="10" y="10" width="20" height="20">
<path d="M10 10H30V30H10V10Z" fill="white"/>
</mask>
<g mask="url(#mask0_118_15217)">
<path fill-rule="evenodd" clip-rule="evenodd" d="M10 20.0558C10 25.0275 13.6108 29.1617 18.3333 30V22.7775H15.8333V20H18.3333V17.7775C18.3333 15.2775 19.9442 13.8892 22.2225 13.8892C22.9442 13.8892 23.7225 14 24.4442 14.1108V16.6667H23.1667C21.9442 16.6667 21.6667 17.2775 21.6667 18.0558V20H24.3333L23.8892 22.7775H21.6667V30C26.3892 29.1617 30 25.0283 30 20.0558C30 14.525 25.5 10 20 10C14.5 10 10 14.525 10 20.0558Z" fill="#29261E"/>
</g>
</g>
<defs>
<clipPath id="clip0_118_15217">
<rect width="20" height="20" fill="white" transform="translate(10 10)"/>
</clipPath>
</defs>
</svg>
