<svg width="40" height="40" viewBox="0 0 40 40" fill="none" xmlns="http://www.w3.org/2000/svg">
<circle cx="20" cy="20" r="20" fill="white"/>
<path d="M29.7024 14.1137C29.0066 14.422 28.2591 14.6303 27.4733 14.7245C28.2841 14.2393 28.8907 13.4757 29.1799 12.5762C28.4181 13.0287 27.5844 13.3472 26.7149 13.5178C26.1302 12.8935 25.3558 12.4798 24.5119 12.3407C23.6679 12.2017 22.8017 12.3452 22.0476 12.7489C21.2936 13.1526 20.6939 13.794 20.3417 14.5734C19.9895 15.3529 19.9045 16.2268 20.0999 17.0595C18.5563 16.982 17.0463 16.5808 15.6678 15.8819C14.2893 15.183 13.0731 14.2021 12.0983 13.0028C11.7649 13.5778 11.5733 14.2445 11.5733 14.9545C11.5729 15.5937 11.7303 16.223 12.0315 16.7868C12.3327 17.3505 12.7684 17.8312 13.2999 18.1862C12.6835 18.1665 12.0807 18 11.5416 17.7003V17.7503C11.5415 18.6468 11.8516 19.5156 12.4192 20.2095C12.9869 20.9033 13.7771 21.3794 14.6558 21.557C14.0839 21.7118 13.4844 21.7346 12.9024 21.6237C13.1503 22.395 13.6333 23.0695 14.2836 23.5528C14.9339 24.036 15.719 24.3038 16.5291 24.3187C15.154 25.3982 13.4557 25.9837 11.7074 25.9812C11.3977 25.9812 11.0883 25.9632 10.7808 25.927C12.5553 27.068 14.621 27.6735 16.7308 27.6712C23.8724 27.6712 27.7766 21.7562 27.7766 16.6262C27.7766 16.4595 27.7724 16.2912 27.7649 16.1245C28.5243 15.5753 29.1799 14.8952 29.7008 14.1162L29.7024 14.1137Z" fill="#29261E"/>
</svg>
