<svg width="40" height="40" viewBox="0 0 40 40" fill="none" xmlns="http://www.w3.org/2000/svg">
<circle cx="20" cy="20" r="20" fill="white"/>
<g clip-path="url(#clip0_118_15229)">
<mask id="mask0_118_15229" style="mask-type:luminance" maskUnits="userSpaceOnUse" x="10" y="10" width="20" height="20">
<path d="M10 10H30V30H10V10Z" fill="white"/>
</mask>
<g mask="url(#mask0_118_15229)">
<path fill-rule="evenodd" clip-rule="evenodd" d="M30 20C30 25.5225 25.5225 30 20 30C14.4775 30 10 25.5225 10 20C10 14.4775 14.4775 10 20 10C25.5225 10 30 14.4775 30 20ZM26.4067 19.215C26.5683 19.4458 26.66 19.7183 26.67 20C26.6744 20.2756 26.6006 20.5467 26.4573 20.7821C26.3139 21.0175 26.1068 21.2074 25.86 21.33C25.8717 21.4767 25.8717 21.6233 25.86 21.77C25.86 24.01 23.25 25.83 20.03 25.83C16.81 25.83 14.2 24.01 14.2 21.77C14.1887 21.6235 14.1887 21.4764 14.2 21.33C14.0093 21.2407 13.8402 21.1112 13.7043 20.9504C13.5684 20.7896 13.469 20.6012 13.4128 20.3983C13.3566 20.1954 13.3451 19.9827 13.3789 19.7749C13.4127 19.5671 13.4911 19.3691 13.6088 19.1944C13.7264 19.0198 13.8805 18.8727 14.0603 18.7633C14.2402 18.6539 14.4417 18.5847 14.6508 18.5605C14.86 18.5364 15.0719 18.5578 15.272 18.6233C15.4721 18.6888 15.6556 18.7968 15.81 18.94C16.9623 18.1585 18.3179 17.731 19.71 17.71L20.45 14.24C20.4583 14.1998 20.4745 14.1617 20.4977 14.1278C20.5208 14.094 20.5505 14.065 20.5849 14.0427C20.6193 14.0204 20.6578 14.0051 20.6982 13.9978C20.7385 13.9905 20.7799 13.9912 20.82 14L23.27 14.49C23.3896 14.2844 23.5786 14.1283 23.8031 14.0495C24.0275 13.9707 24.2726 13.9745 24.4945 14.0602C24.7164 14.1459 24.9005 14.3078 25.0137 14.517C25.1269 14.7262 25.1619 14.9689 25.1123 15.2015C25.0627 15.4341 24.9319 15.6414 24.7432 15.7863C24.5545 15.9311 24.3204 16.0039 24.0829 15.9917C23.8453 15.9795 23.6199 15.883 23.4471 15.7196C23.2743 15.5562 23.1654 15.3365 23.14 15.1L21 14.65L20.35 17.77C21.7252 17.7995 23.0624 18.2267 24.2 19C24.3519 18.854 24.5335 18.7426 24.7325 18.6735C24.9315 18.6043 25.1431 18.5791 25.3528 18.5996C25.5625 18.62 25.7653 18.6856 25.9472 18.7918C26.1291 18.8981 26.2858 19.0424 26.4067 19.215ZM16.8383 20.4442C16.7653 20.5534 16.7146 20.6759 16.6889 20.8047C16.6633 20.9336 16.6633 21.0662 16.6889 21.195C16.7406 21.4552 16.8936 21.6842 17.1142 21.8317C17.3347 21.9791 17.6048 22.0328 17.865 21.9811C17.9939 21.9555 18.1164 21.9048 18.2257 21.8318C18.3349 21.7588 18.4287 21.665 18.5017 21.5558C18.6491 21.3353 18.7028 21.0652 18.6511 20.805C18.5994 20.5448 18.4464 20.3157 18.2258 20.1683C18.0053 20.0209 17.7352 19.9672 17.475 20.0189C17.2147 20.0706 16.9857 20.2236 16.8383 20.4442ZM20.01 24.52C20.8975 24.5567 21.7708 24.325 22.48 23.79C22.533 23.7383 22.5634 23.6676 22.5643 23.5935C22.5652 23.5195 22.5367 23.448 22.485 23.395C22.4594 23.3687 22.4289 23.3478 22.3952 23.3333C22.3614 23.3188 22.3252 23.3112 22.2885 23.3107C22.2145 23.3098 22.143 23.3383 22.09 23.39C21.4831 23.8254 20.7458 24.0406 20 24C19.2551 24.0333 18.5212 23.811 17.92 23.37C17.8682 23.3275 17.8024 23.3057 17.7355 23.309C17.6685 23.3123 17.6052 23.3404 17.5578 23.3878C17.5104 23.4352 17.4823 23.4985 17.479 23.5655C17.4757 23.6324 17.4975 23.6982 17.54 23.75C18.2495 24.2847 19.1224 24.5568 20.01 24.52ZM21.7442 21.8717C21.9092 21.9817 22.0925 22.08 22.29 22.08C22.4256 22.0816 22.5602 22.0555 22.6854 22.0034C22.8106 21.9514 22.924 21.8743 23.0185 21.777C23.1129 21.6797 23.1866 21.5642 23.235 21.4375C23.2835 21.3108 23.3056 21.1755 23.3 21.04C23.2999 20.8673 23.2551 20.6975 23.1699 20.5472C23.0848 20.397 22.9621 20.2713 22.8139 20.1825C22.6658 20.0938 22.4971 20.0449 22.3244 20.0407C22.1517 20.0365 21.9809 20.077 21.8286 20.1585C21.6762 20.2399 21.5476 20.3594 21.4552 20.5053C21.3628 20.6513 21.3097 20.8186 21.3012 20.9912C21.2927 21.1637 21.329 21.3355 21.4067 21.4898C21.4843 21.6441 21.6006 21.7757 21.7442 21.8717Z" fill="#29261E"/>
</g>
</g>
<defs>
<clipPath id="clip0_118_15229">
<rect width="20" height="20" fill="white" transform="translate(10 10)"/>
</clipPath>
</defs>
</svg>
