<svg width="24" height="16" viewBox="0 0 24 16" fill="none" xmlns="http://www.w3.org/2000/svg">
<path d="M6.66664 10.6339C5.30222 10.6339 3.94282 10.6339 2.55332 10.6339C2.38277 11.1899 2.2072 11.7459 2.03665 12.302C1.836 12.9604 1.63535 13.6237 1.42968 14.2822C1.25913 14.8236 0.662198 15.0089 0.240833 14.6529C-0.00997865 14.4432 -0.045092 14.17 0.0452003 13.8774C0.561873 12.2093 1.07353 10.5412 1.5902 8.87309C2.35769 6.38071 3.12517 3.88832 3.89266 1.40082C4.00803 1.03013 4.25884 0.820398 4.59995 0.820398C4.9561 0.81552 5.21694 1.02037 5.33232 1.40082C6.61146 5.5613 7.8906 9.7169 9.16974 13.8774C9.30518 14.3212 9.12459 14.687 8.70825 14.8138C8.30695 14.9358 7.92571 14.7163 7.79028 14.2822C7.42409 13.1019 7.06292 11.9215 6.69674 10.746C6.69172 10.7021 6.68169 10.6729 6.66664 10.6339ZM4.64008 4.02977C4.62503 4.02977 4.60998 4.02489 4.59493 4.02489C4.06321 5.74664 3.53149 7.47326 2.99475 9.20476C4.08327 9.20476 5.14672 9.20476 6.23524 9.20476C5.6985 7.46838 5.16678 5.74664 4.64008 4.02977Z" fill="#81858C" stroke="#81858C" stroke-width="0.5"/>
<path d="M12.2649 9.25323C12.2649 10.3458 12.2649 11.3993 12.2649 12.4529C12.2649 12.9991 12.2649 13.5405 12.2649 14.0868C12.2649 14.5355 11.9639 14.8574 11.5425 14.8623C11.1262 14.8623 10.8152 14.5355 10.8152 14.0917C10.8152 9.9312 10.8152 5.76585 10.8152 1.60537C10.8152 1.12738 11.1162 0.829851 11.6128 0.829851C12.8167 0.824973 14.0206 0.820096 15.2245 0.829851C16.7193 0.844483 18.0035 2.08336 18.0285 3.53684C18.0436 4.53672 18.0436 5.5366 18.0285 6.53649C18.0085 8.01924 16.7093 9.2386 15.1492 9.24836C14.2864 9.25323 13.4286 9.24836 12.5659 9.24836C12.4806 9.25323 12.3903 9.25323 12.2649 9.25323ZM12.2849 2.23944C12.2849 4.12214 12.2849 5.97558 12.2849 7.84365C13.2882 7.84365 14.2764 7.86316 15.2596 7.83877C16.002 7.81926 16.5788 7.19494 16.5839 6.4682C16.5939 5.5171 16.5889 4.56599 16.5839 3.61488C16.5788 2.87839 15.9919 2.26383 15.2345 2.24432C14.2613 2.21993 13.2832 2.23944 12.2849 2.23944Z" fill="#81858C" stroke="#81858C" stroke-width="0.5"/>
<path d="M20.9028 13.4527C20.9028 9.71169 20.9028 5.99019 20.9028 2.23454C20.6921 2.23454 20.4764 2.23454 20.2657 2.23454C19.7992 2.22966 19.4932 1.95652 19.4882 1.52731C19.4832 1.12735 19.7992 0.82983 20.2506 0.82983C21.1786 0.824953 22.1067 0.824953 23.0347 0.82983C23.4911 0.82983 23.8122 1.13711 23.8072 1.54682C23.8021 1.95165 23.4861 2.22966 23.0296 2.23454C22.8139 2.23454 22.5982 2.23454 22.3725 2.23454C22.3725 5.97556 22.3725 9.69706 22.3725 13.4527C22.5932 13.4527 22.8139 13.4527 23.0347 13.4527C23.4811 13.4527 23.8021 13.7405 23.8072 14.1453C23.8122 14.5453 23.4911 14.8574 23.0547 14.8574C22.1167 14.8623 21.1837 14.8623 20.2456 14.8574C19.7992 14.8574 19.4832 14.5599 19.4832 14.1551C19.4832 13.7454 19.7942 13.4576 20.2406 13.4527C20.4563 13.4478 20.672 13.4527 20.9028 13.4527Z" fill="#81858C" stroke="#81858C" stroke-width="0.5"/>
</svg>
