<svg width="252" height="76" viewBox="0 0 252 76" fill="none" xmlns="http://www.w3.org/2000/svg">
<g clip-path="url(#clip0_29_7203)">
<path d="M242.667 2.1613C244.746 2.1613 246.74 2.9873 248.21 4.45758C249.681 5.92787 250.507 7.92201 250.507 10.0013V66.0013C250.507 68.0806 249.681 70.0747 248.21 71.545C246.74 73.0153 244.746 73.8413 242.667 73.8413H9.33333C7.25404 73.8413 5.2599 73.0153 3.78962 71.545C2.31933 70.0747 1.49333 68.0806 1.49333 66.0013V10.0013C1.49333 7.92201 2.31933 5.92787 3.78962 4.45758C5.2599 2.9873 7.25404 2.1613 9.33333 2.1613H242.667ZM242.667 0.667969H9.33333C6.85798 0.667969 4.48401 1.6513 2.73367 3.40164C0.98333 5.15198 0 7.52595 0 10.0013V66.0013C0 68.4767 0.98333 70.8506 2.73367 72.601C4.48401 74.3513 6.85798 75.3346 9.33333 75.3346H242.667C245.142 75.3346 247.516 74.3513 249.266 72.601C251.017 70.8506 252 68.4767 252 66.0013V10.0013C252 7.52595 251.017 5.15198 249.266 3.40164C247.516 1.6513 245.142 0.667969 242.667 0.667969Z" fill="#2E2E2E"/>
<path d="M59.9438 36.7189C59.8923 30.9866 64.6375 28.1978 64.8545 28.0679C62.1671 24.1497 58.0016 23.6144 56.5379 23.5717C53.0394 23.2035 49.6459 25.6651 47.8638 25.6651C46.0461 25.6651 43.3017 23.6073 40.344 23.6677C36.5378 23.7264 32.9771 25.9301 31.0243 29.3521C26.994 36.3294 29.9998 46.5829 33.8611 52.2227C35.7926 54.9848 38.0496 58.0689 41.0038 57.9604C43.894 57.8412 44.9736 56.1178 48.4614 56.1178C51.9171 56.1178 52.9309 57.9604 55.9438 57.891C59.0457 57.8412 60.9985 55.1165 62.8625 52.3294C65.0946 49.1636 65.991 46.0457 66.0266 45.8857C65.9536 45.8608 60.0025 43.5895 59.9438 36.7189Z" fill="#2E2E2E"/>
<path d="M54.2525 19.8616C55.807 17.9176 56.8706 15.2728 56.5754 12.589C54.3255 12.6886 51.5118 14.1452 49.8915 16.0465C48.458 17.7219 47.1774 20.468 47.5082 23.0505C50.0356 23.2391 52.6305 21.7753 54.2525 19.8616Z" fill="#2E2E2E"/>
<path d="M101.77 57.5635H97.7307L95.5182 50.6111H87.8276L85.72 57.5635H81.7876L89.407 33.8943H94.1131L101.77 57.5635ZM94.8512 47.6942L92.8503 41.5137C92.6387 40.8823 92.242 39.3954 91.6569 37.0548H91.5858C91.3528 38.0615 90.9775 39.5483 90.4617 41.5137L88.4964 47.6942H94.8512Z" fill="#2E2E2E"/>
<path d="M121.364 48.82C121.364 51.7227 120.58 54.017 119.011 55.7013C117.606 57.2007 115.861 57.9494 113.778 57.9494C111.53 57.9494 109.915 57.142 108.932 55.527H108.861V64.5177H105.069V46.1148C105.069 44.29 105.021 42.4172 104.928 40.4963H108.263L108.475 43.2015H108.546C109.81 41.1633 111.729 40.1459 114.305 40.1459C116.318 40.1459 117.999 40.941 119.344 42.5328C120.692 44.1264 121.364 46.2215 121.364 48.82ZM117.501 48.9588C117.501 47.2976 117.127 45.9281 116.377 44.8503C115.557 43.7262 114.456 43.1642 113.076 43.1642C112.14 43.1642 111.29 43.4772 110.531 44.0944C109.769 44.7169 109.271 45.5297 109.038 46.5363C108.921 47.0059 108.862 47.3901 108.862 47.6924V50.5381C108.862 51.7796 109.243 52.8272 110.004 53.6826C110.765 54.5381 111.754 54.965 112.971 54.965C114.399 54.965 115.511 54.4136 116.306 53.3145C117.103 52.2135 117.501 50.7622 117.501 48.9588Z" fill="#2E2E2E"/>
<path d="M140.995 48.82C140.995 51.7227 140.21 54.017 138.64 55.7013C137.236 57.2007 135.492 57.9494 133.409 57.9494C131.161 57.9494 129.546 57.142 128.564 55.527H128.493V64.5177H124.701V46.1148C124.701 44.29 124.653 42.4172 124.561 40.4963H127.895L128.107 43.2015H128.178C129.441 41.1633 131.36 40.1459 133.937 40.1459C135.949 40.1459 137.63 40.941 138.978 42.5328C140.32 44.1264 140.995 46.2215 140.995 48.82ZM137.131 48.9588C137.131 47.2976 136.756 45.9281 136.006 44.8503C135.186 43.7262 134.088 43.1642 132.706 43.1642C131.769 43.1642 130.921 43.4772 130.159 44.0944C129.398 44.7169 128.902 45.5297 128.669 46.5363C128.553 47.0059 128.493 47.3901 128.493 47.6924V50.5381C128.493 51.7796 128.874 52.8272 129.631 53.6826C130.392 54.5364 131.381 54.965 132.601 54.965C134.03 54.965 135.141 54.4136 135.936 53.3145C136.733 52.2135 137.131 50.7622 137.131 48.9588Z" fill="#2E2E2E"/>
<path d="M162.942 50.9259C162.942 52.9393 162.243 54.5773 160.84 55.8419C159.298 57.2239 157.151 57.9139 154.393 57.9139C151.846 57.9139 149.804 57.4231 148.258 56.4395L149.137 53.279C150.802 54.2857 152.628 54.7908 154.618 54.7908C156.047 54.7908 157.158 54.4671 157.957 53.8232C158.752 53.1794 159.148 52.315 159.148 51.2372C159.148 50.2768 158.821 49.4675 158.165 48.8112C157.512 48.1549 156.422 47.5449 154.899 46.9811C150.755 45.4355 148.685 43.1714 148.685 40.194C148.685 38.2483 149.411 36.6529 150.864 35.4115C152.312 34.1682 154.243 33.5475 156.658 33.5475C158.812 33.5475 160.602 33.9228 162.03 34.6716L161.082 37.7627C159.748 37.0371 158.24 36.6742 156.552 36.6742C155.218 36.6742 154.176 37.0033 153.429 37.6578C152.797 38.2429 152.481 38.9562 152.481 39.801C152.481 40.7365 152.842 41.5102 153.567 42.1185C154.199 42.6805 155.346 43.2888 157.011 43.945C159.047 44.765 160.543 45.7236 161.505 46.8228C162.464 47.9184 162.942 49.2897 162.942 50.9259Z" fill="#2E2E2E"/>
<path d="M175.479 43.3421H171.299V51.6285C171.299 53.7361 172.036 54.789 173.512 54.789C174.189 54.789 174.751 54.7303 175.196 54.6129L175.301 57.4924C174.554 57.7717 173.571 57.9122 172.352 57.9122C170.855 57.9122 169.684 57.4551 168.84 56.5427C167.998 55.6285 167.575 54.0953 167.575 51.9415V43.3385H165.085V40.4928H167.575V37.3679L171.299 36.2438V40.4928H175.479V43.3421Z" fill="#2E2E2E"/>
<path d="M194.337 48.8896C194.337 51.513 193.587 53.6668 192.089 55.3512C190.519 57.0853 188.434 57.9496 185.836 57.9496C183.332 57.9496 181.338 57.1191 179.851 55.4579C178.364 53.7967 177.621 51.6997 177.621 49.1724C177.621 46.5277 178.385 44.3614 179.92 42.677C181.452 40.991 183.518 40.1479 186.117 40.1479C188.621 40.1479 190.636 40.9785 192.157 42.6415C193.612 44.2546 194.337 46.3374 194.337 48.8896ZM190.403 49.0123C190.403 47.4383 190.067 46.0883 189.386 44.9625C188.591 43.6001 187.454 42.9207 185.982 42.9207C184.457 42.9207 183.3 43.6019 182.505 44.9625C181.823 46.0901 181.487 47.4614 181.487 49.0835C181.487 50.6575 181.823 52.0074 182.505 53.1315C183.324 54.4939 184.47 55.1733 185.948 55.1733C187.396 55.1733 188.532 54.4797 189.352 53.0959C190.051 51.9487 190.403 50.5846 190.403 49.0123Z" fill="#2E2E2E"/>
<path d="M206.662 43.8311C206.287 43.7618 205.887 43.7262 205.467 43.7262C204.133 43.7262 203.102 44.2295 202.376 45.238C201.745 46.1273 201.428 47.2513 201.428 48.6084V57.5635H197.638L197.674 45.8712C197.674 43.9041 197.626 42.113 197.531 40.4981H200.834L200.973 43.7636H201.078C201.478 42.6413 202.109 41.7378 202.974 41.0601C203.818 40.4501 204.731 40.1459 205.714 40.1459C206.065 40.1459 206.381 40.1708 206.662 40.2153V43.8311Z" fill="#2E2E2E"/>
<path d="M223.621 48.2226C223.621 48.902 223.577 49.4747 223.483 49.9424H212.107C212.151 51.6285 212.701 52.918 213.757 53.8073C214.716 54.6023 215.956 55.0007 217.478 55.0007C219.162 55.0007 220.699 54.7321 222.081 54.1932L222.675 56.8255C221.06 57.5298 219.154 57.8802 216.953 57.8802C214.307 57.8802 212.23 57.1012 210.718 55.5449C209.21 53.9887 208.454 51.8989 208.454 49.2772C208.454 46.7036 209.156 44.5605 210.563 42.8513C212.036 41.0265 214.026 40.114 216.53 40.114C218.99 40.114 220.852 41.0265 222.117 42.8513C223.118 44.3008 223.621 46.0936 223.621 48.2226ZM220.005 47.239C220.03 46.1149 219.783 45.1438 219.269 44.3239C218.613 43.2692 217.604 42.7428 216.247 42.7428C215.008 42.7428 213.999 43.2568 213.229 44.2884C212.598 45.1083 212.222 46.0918 212.107 47.2372H220.005V47.239Z" fill="#2E2E2E"/>
<path d="M93.5981 19.3334C93.5981 21.4268 92.9703 23.0026 91.7164 24.0608C90.5549 25.0373 88.9044 25.5264 86.7666 25.5264C85.7066 25.5264 84.7995 25.4801 84.04 25.3876V13.9496C85.0307 13.7896 86.0978 13.7078 87.2504 13.7078C89.2868 13.7078 90.8217 14.1506 91.8569 15.0364C93.0165 16.0377 93.5981 17.4694 93.5981 19.3334ZM91.6328 19.385C91.6328 18.0279 91.2735 16.9874 90.555 16.2618C89.8364 15.5379 88.7871 15.1751 87.4051 15.1751C86.8182 15.1751 86.3184 15.2142 85.904 15.296V23.9915C86.1334 24.027 86.5532 24.043 87.1632 24.043C88.5896 24.043 89.6906 23.6464 90.466 22.8532C91.2415 22.0599 91.6328 20.9039 91.6328 19.385Z" fill="#2E2E2E"/>
<path d="M104.019 21.1617C104.019 22.4512 103.651 23.5076 102.914 24.3365C102.142 25.1884 101.12 25.6135 99.8427 25.6135C98.6119 25.6135 97.6319 25.2062 96.901 24.388C96.1717 23.5717 95.8071 22.5419 95.8071 21.3004C95.8071 20.0021 96.1824 18.9367 96.9365 18.1097C97.6906 17.2826 98.7044 16.8682 99.9814 16.8682C101.212 16.8682 102.201 17.2755 102.95 18.0919C103.661 18.8851 104.019 19.9096 104.019 21.1617ZM102.085 21.2222C102.085 20.4485 101.918 19.7851 101.586 19.232C101.194 18.5632 100.638 18.2288 99.9139 18.2288C99.1651 18.2288 98.5959 18.5632 98.2046 19.232C97.8703 19.7851 97.7049 20.4592 97.7049 21.256C97.7049 22.0297 97.872 22.6931 98.2046 23.2462C98.6084 23.9149 99.1704 24.2493 99.8961 24.2493C100.607 24.2493 101.166 23.9096 101.568 23.2284C101.913 22.6646 102.085 21.9959 102.085 21.2222Z" fill="#2E2E2E"/>
<path d="M117.991 17.0389L115.368 25.4231H113.661L112.574 21.7823C112.298 20.8735 112.074 19.97 111.9 19.0736H111.866C111.704 19.9949 111.48 20.8966 111.192 21.7823L110.038 25.4231H108.311L105.844 17.0389H107.759L108.707 21.0247C108.937 21.9673 109.125 22.8655 109.276 23.7157H109.31C109.449 23.0149 109.678 22.1221 110.002 21.0425L111.192 17.0407H112.711L113.851 20.9571C114.127 21.9122 114.351 22.8317 114.523 23.7174H114.575C114.701 22.8548 114.891 21.9353 115.144 20.9571L116.161 17.0407H117.991V17.0389Z" fill="#2E2E2E"/>
<path d="M127.654 25.4231H125.79V20.6209C125.79 19.1412 125.228 18.4013 124.101 18.4013C123.548 18.4013 123.101 18.604 122.754 19.0113C122.411 19.4186 122.237 19.8988 122.237 20.4484V25.4213H120.373V19.4346C120.373 18.6983 120.35 17.8997 120.305 17.0353H121.943L122.03 18.3461H122.082C122.299 17.9388 122.623 17.6027 123.048 17.3341C123.553 17.0211 124.118 16.8628 124.737 16.8628C125.52 16.8628 126.171 17.1154 126.688 17.6223C127.332 18.243 127.654 19.1696 127.654 20.4004V25.4231Z" fill="#2E2E2E"/>
<path d="M132.794 25.4232H130.932V13.1919H132.794V25.4232Z" fill="#2E2E2E"/>
<path d="M143.768 21.1617C143.768 22.4512 143.4 23.5076 142.664 24.3365C141.892 25.1884 140.867 25.6135 139.592 25.6135C138.36 25.6135 137.38 25.2062 136.65 24.388C135.921 23.5717 135.557 22.5419 135.557 21.3004C135.557 20.0021 135.932 18.9367 136.686 18.1097C137.44 17.2826 138.454 16.8682 139.729 16.8682C140.962 16.8682 141.949 17.2755 142.699 18.0919C143.411 18.8851 143.768 19.9096 143.768 21.1617ZM141.833 21.2222C141.833 20.4485 141.666 19.7851 141.333 19.232C140.944 18.5632 140.385 18.2288 139.663 18.2288C138.913 18.2288 138.344 18.5632 137.954 19.232C137.62 19.7851 137.454 20.4592 137.454 21.256C137.454 22.0297 137.622 22.6931 137.954 23.2462C138.358 23.9149 138.92 24.2493 139.646 24.2493C140.357 24.2493 140.914 23.9096 141.316 23.2284C141.662 22.6646 141.833 21.9959 141.833 21.2222Z" fill="#2E2E2E"/>
<path d="M152.789 25.4232H151.115L150.976 24.4574H150.925C150.352 25.2275 149.536 25.6135 148.476 25.6135C147.684 25.6135 147.044 25.3591 146.562 24.854C146.125 24.3952 145.906 23.8242 145.906 23.1466C145.906 22.1221 146.333 21.3413 147.192 20.8007C148.049 20.26 149.255 19.995 150.808 20.0074V19.8509C150.808 18.7464 150.228 18.1951 149.066 18.1951C148.239 18.1951 147.51 18.4031 146.88 18.8158L146.502 17.5921C147.281 17.1101 148.243 16.8682 149.378 16.8682C151.569 16.8682 152.668 18.0243 152.668 20.3365V23.4241C152.668 24.2618 152.709 24.9287 152.789 25.4232ZM150.854 22.5419V21.2489C148.798 21.2133 147.77 21.7771 147.77 22.9385C147.77 23.376 147.887 23.7033 148.127 23.9221C148.367 24.1408 148.673 24.2493 149.038 24.2493C149.447 24.2493 149.829 24.1195 150.178 23.8616C150.528 23.6019 150.743 23.2729 150.824 22.8691C150.843 22.7784 150.854 22.6682 150.854 22.5419Z" fill="#2E2E2E"/>
<path d="M163.38 25.4232H161.726L161.639 24.0768H161.587C161.059 25.1012 160.159 25.6135 158.894 25.6135C157.884 25.6135 157.043 25.2168 156.376 24.4236C155.709 23.6304 155.376 22.6006 155.376 21.336C155.376 19.979 155.738 18.8798 156.463 18.0403C157.166 17.2577 158.027 16.8665 159.051 16.8665C160.177 16.8665 160.965 17.2453 161.413 18.0047H161.449V13.1919H163.314V23.1644C163.314 23.9807 163.336 24.7331 163.38 25.4232ZM161.449 21.8874V20.4894C161.449 20.2475 161.431 20.0519 161.397 19.9025C161.292 19.4543 161.066 19.0772 160.723 18.7731C160.376 18.4689 159.958 18.316 159.476 18.316C158.781 18.316 158.236 18.5917 157.836 19.1448C157.44 19.6979 157.239 20.404 157.239 21.2666C157.239 22.0955 157.429 22.7678 157.811 23.2853C158.215 23.8367 158.759 24.1124 159.441 24.1124C160.052 24.1124 160.541 23.8829 160.913 23.4223C161.272 22.9972 161.449 22.485 161.449 21.8874Z" fill="#2E2E2E"/>
<path d="M179.322 21.1617C179.322 22.4512 178.954 23.5076 178.218 24.3365C177.446 25.1884 176.425 25.6135 175.146 25.6135C173.917 25.6135 172.937 25.2062 172.204 24.388C171.475 23.5717 171.11 22.5419 171.11 21.3004C171.11 20.0021 171.486 18.9367 172.24 18.1097C172.994 17.2826 174.008 16.8682 175.286 16.8682C176.515 16.8682 177.506 17.2755 178.253 18.0919C178.965 18.8851 179.322 19.9096 179.322 21.1617ZM177.391 21.2222C177.391 20.4485 177.223 19.7851 176.891 19.232C176.498 18.5632 175.943 18.2288 175.217 18.2288C174.47 18.2288 173.901 18.5632 173.508 19.232C173.173 19.7851 173.008 20.4592 173.008 21.256C173.008 22.0297 173.175 22.6931 173.508 23.2462C173.912 23.9149 174.474 24.2493 175.199 24.2493C175.911 24.2493 176.471 23.9096 176.873 23.2284C177.216 22.6646 177.391 21.9959 177.391 21.2222Z" fill="#2E2E2E"/>
<path d="M189.344 25.4231H187.482V20.6209C187.482 19.1412 186.92 18.4013 185.79 18.4013C185.237 18.4013 184.791 18.604 184.446 19.0113C184.101 19.4186 183.928 19.8988 183.928 20.4484V25.4213H182.062V19.4346C182.062 18.6983 182.041 17.8997 181.997 17.0353H183.633L183.72 18.3461H183.772C183.99 17.9388 184.314 17.6027 184.737 17.3341C185.244 17.0211 185.808 16.8628 186.429 16.8628C187.21 16.8628 187.861 17.1154 188.378 17.6223C189.024 18.243 189.344 19.1696 189.344 20.4004V25.4231Z" fill="#2E2E2E"/>
<path d="M201.888 18.4352H199.836V22.5081C199.836 23.5432 200.2 24.0608 200.922 24.0608C201.257 24.0608 201.534 24.0323 201.753 23.9736L201.801 25.3876C201.433 25.5263 200.949 25.5957 200.353 25.5957C199.617 25.5957 199.044 25.3716 198.63 24.9234C198.213 24.4752 198.007 23.7211 198.007 22.6628V18.4352H196.782V17.039H198.007V15.5023L199.834 14.9509V17.0372H201.886V18.4352H201.888Z" fill="#2E2E2E"/>
<path d="M211.756 25.4232H209.89V20.6566C209.89 19.1537 209.328 18.4014 208.202 18.4014C207.338 18.4014 206.748 18.8371 206.424 19.7086C206.369 19.8918 206.337 20.1159 206.337 20.3791V25.4214H204.475V13.1919H206.337V18.2448H206.372C206.959 17.3253 207.801 16.8665 208.891 16.8665C209.663 16.8665 210.301 17.119 210.808 17.6259C211.439 18.2573 211.756 19.1964 211.756 20.4378V25.4232Z" fill="#2E2E2E"/>
<path d="M221.935 20.8344C221.935 21.1688 221.91 21.4498 221.866 21.6792H216.276C216.3 22.508 216.567 23.1394 217.085 23.577C217.558 23.9683 218.168 24.1639 218.915 24.1639C219.742 24.1639 220.496 24.0323 221.175 23.7673L221.467 25.0621C220.672 25.4071 219.737 25.5796 218.653 25.5796C217.355 25.5796 216.332 25.1972 215.593 24.4325C214.849 23.6677 214.481 22.6414 214.481 21.3538C214.481 20.0892 214.824 19.0363 215.516 18.1968C216.238 17.3004 217.215 16.8522 218.447 16.8522C219.653 16.8522 220.569 17.3004 221.188 18.1968C221.688 18.9082 221.935 19.7886 221.935 20.8344ZM220.156 20.3524C220.171 19.7993 220.048 19.3226 219.795 18.9207C219.472 18.4031 218.979 18.1434 218.312 18.1434C217.704 18.1434 217.208 18.396 216.829 18.9029C216.519 19.3066 216.336 19.7886 216.276 20.3524H220.156Z" fill="#2E2E2E"/>
</g>
<defs>
<clipPath id="clip0_29_7203">
<rect width="252" height="74.6667" fill="white" transform="translate(0 0.667969)"/>
</clipPath>
</defs>
</svg>
