<svg width="24" height="24" viewBox="0 0 24 24" fill="none" xmlns="http://www.w3.org/2000/svg">
<rect width="24" height="24" fill="white"/>
<path d="M15.2489 4.54566C16.012 3.59119 16.5298 2.30962 16.3932 1C15.2762 1.05555 13.913 1.73697 13.1238 2.69219C12.4152 3.51019 11.788 4.84543 11.9515 6.10014C13.2055 6.20891 14.4583 5.47335 15.2489 4.54566Z" fill="#81858C"/>
<path d="M16.3801 6.34418C14.559 6.23571 13.0106 7.37772 12.141 7.37772C11.2709 7.37772 9.93914 6.39884 8.49877 6.42522C6.62405 6.45277 4.88452 7.51275 3.93317 9.19862C1.97642 12.5712 3.41678 17.5739 5.31962 20.3207C6.24369 21.6796 7.35733 23.1758 8.82475 23.1221C10.2112 23.0678 10.7546 22.2244 12.4399 22.2244C14.124 22.2244 14.6135 23.1221 16.0812 23.0949C17.6031 23.0678 18.5547 21.7353 19.4787 20.3751C20.5387 18.826 20.9727 17.3302 21 17.2481C20.9727 17.2209 18.0652 16.1055 18.0382 12.761C18.0108 9.96053 20.321 8.62849 20.4297 8.54587C19.1251 6.61641 17.0867 6.39884 16.3801 6.34418Z" fill="#81858C"/>
</svg>
