<svg width="18" height="23" viewBox="0 0 18 23" fill="none" xmlns="http://www.w3.org/2000/svg">
<path d="M12.2489 3.54566C13.012 2.59119 13.5298 1.30962 13.3932 0C12.2762 0.0555455 10.913 0.73697 10.1238 1.69219C9.41518 2.51019 8.78799 3.84543 8.95149 5.10014C10.2055 5.20891 11.4583 4.47335 12.2489 3.54566Z" fill="#81858C"/>
<path d="M13.3801 5.34418C11.559 5.23571 10.0106 6.37772 9.14099 6.37772C8.27086 6.37772 6.93914 5.39884 5.49877 5.42522C3.62405 5.45277 1.88452 6.51275 0.93317 8.19862C-1.02358 11.5712 0.416785 16.5739 2.31962 19.3207C3.24369 20.6796 4.35733 22.1758 5.82475 22.1221C7.2112 22.0678 7.75463 21.2244 9.43993 21.2244C11.124 21.2244 11.6135 22.1221 13.0812 22.0949C14.6031 22.0678 15.5547 20.7353 16.4787 19.3751C17.5387 17.826 17.9727 16.3302 18 16.2481C17.9727 16.2209 15.0652 15.1055 15.0382 11.761C15.0108 8.96053 17.321 7.62849 17.4297 7.54587C16.1251 5.61641 14.0867 5.39884 13.3801 5.34418Z" fill="#81858C"/>
</svg>
