<svg width="21" height="21" viewBox="0 0 21 21" fill="none" xmlns="http://www.w3.org/2000/svg">
<path d="M12.2224 16.1694C12.4238 16.1697 12.619 16.0992 12.7741 15.9698C12.8614 15.897 12.9335 15.8076 12.9864 15.7067C13.0393 15.6057 13.0719 15.4953 13.0823 15.3817C13.0927 15.2681 13.0807 15.1535 13.0471 15.0446C13.0134 14.9356 12.9587 14.8344 12.8861 14.7468L9.02414 10.0974L12.7482 5.43927C12.8198 5.35054 12.8733 5.24845 12.9056 5.13886C12.9378 5.02927 12.9483 4.91434 12.9362 4.80068C12.9242 4.68703 12.89 4.57688 12.8355 4.47657C12.7811 4.37627 12.7075 4.28778 12.6189 4.2162C12.5297 4.13723 12.4253 4.07766 12.3121 4.04124C12.199 4.00482 12.0795 3.99232 11.9614 4.00454C11.8432 4.01676 11.7288 4.05343 11.6253 4.11224C11.5219 4.17105 11.4317 4.25074 11.3603 4.34631L7.19658 9.55088C7.06979 9.70609 7.00048 9.90078 7.00048 10.1017C7.00048 10.3026 7.06979 10.4973 7.19658 10.6525L11.5069 15.8571C11.5933 15.9621 11.7032 16.045 11.8275 16.0993C11.9518 16.1535 12.0871 16.1776 12.2224 16.1694Z" fill="#ffffff"/>
</svg>
