<svg width="21" height="22" viewBox="0 0 21 22" fill="none" xmlns="http://www.w3.org/2000/svg">
<path d="M8.64189 17.1674C8.44047 17.1678 8.24527 17.0972 8.09018 16.9679C8.00289 16.8951 7.93073 16.8056 7.87784 16.7047C7.82495 16.6038 7.79237 16.4934 7.78196 16.3798C7.77155 16.2661 7.78352 16.1516 7.81718 16.0426C7.85084 15.9337 7.90552 15.8325 7.97811 15.7448L11.8401 11.0954L8.11604 6.43732C8.04443 6.34859 7.99096 6.2465 7.95869 6.13691C7.92642 6.02732 7.916 5.91239 7.92801 5.79873C7.94003 5.68507 7.97425 5.57493 8.02871 5.47462C8.08317 5.37431 8.15679 5.28582 8.24535 5.21424C8.33454 5.13527 8.43899 5.07571 8.55215 5.03929C8.6653 5.00287 8.78472 4.99037 8.9029 5.00259C9.02108 5.01481 9.13548 5.05147 9.23891 5.11029C9.34234 5.1691 9.43258 5.24879 9.50395 5.34436L13.6677 10.5489C13.7945 10.7041 13.8638 10.8988 13.8638 11.0997C13.8638 11.3007 13.7945 11.4953 13.6677 11.6506L9.3574 16.8551C9.27092 16.9601 9.16106 17.0431 9.03675 17.0973C8.91243 17.1516 8.77715 17.1756 8.64189 17.1674Z" fill="white"/>
</svg>
