<svg width="224" height="45" viewBox="0 0 224 45" fill="none" xmlns="http://www.w3.org/2000/svg">
<g clip-path="url(#clip0_27_4897)">
<path d="M13.701 18.8247L22.4021 10.1271L31.1068 18.8318L36.1668 13.7682L22.4021 0L8.63745 13.7647L13.701 18.8247Z" fill="#F0B90B"/>
<path d="M-0.00170898 22.4011L5.06001 17.3394L10.1217 22.4011L5.06001 27.4628L-0.00170898 22.4011Z" fill="#F0B90B"/>
<path d="M13.701 25.976L22.4021 34.6771L31.1068 25.9725L36.1704 31.0289L36.1668 31.0325L22.4021 44.8007L8.63745 31.0396L8.63037 31.0325L13.701 25.976Z" fill="#F0B90B"/>
<path d="M34.6741 22.4024L39.7358 17.3406L44.7975 22.4024L39.7358 27.4641L34.6741 22.4024Z" fill="#F0B90B"/>
<path d="M27.5365 22.3986L22.4022 17.2607L18.6054 21.0575L18.1666 21.4927L17.2678 22.3915L17.2607 22.3986L17.2678 22.4092L22.4022 27.54L27.5365 22.4021L27.54 22.3986H27.5365Z" fill="#F0B90B"/>
<path d="M52.6951 10.8561H63.7068C66.4385 10.8561 68.505 11.5638 69.9062 12.9792C70.4342 13.502 70.8503 14.1266 71.1295 14.8152C71.4087 15.5037 71.5451 16.2419 71.5304 16.9847V17.0519C71.5399 17.6605 71.4552 18.2669 71.2792 18.8495C71.1224 19.3511 70.8948 19.8277 70.6033 20.2649C70.3316 20.6772 70.0028 21.0489 69.6267 21.3689C69.2593 21.6851 68.8568 21.9582 68.4272 22.1827C69.6662 22.6143 70.7803 23.3433 71.6719 24.3058C72.4598 25.2022 72.8538 26.4407 72.8538 28.0212V28.0885C72.8762 29.0756 72.6614 30.0536 72.2275 30.9405C71.807 31.7576 71.1907 32.4579 70.4335 32.9786C69.5774 33.5526 68.6243 33.9662 67.6204 34.1994C66.4277 34.4823 65.205 34.6189 63.9793 34.6063H52.6951V10.8561ZM62.6028 20.4595C63.5555 20.5055 64.5036 20.3006 65.3522 19.865C65.6831 19.6717 65.9533 19.3896 66.1322 19.0507C66.3111 18.7117 66.3914 18.3295 66.3642 17.9472V17.8799C66.3817 17.5277 66.3102 17.1767 66.1562 16.8595C66.0022 16.5422 65.7707 16.2689 65.4831 16.0647C64.8958 15.6472 64.0477 15.4384 62.939 15.4384H57.7869V20.4595H62.6028ZM63.9934 30.0311C64.9426 30.0843 65.8874 29.8671 66.7181 29.4048C67.0417 29.1969 67.3036 28.906 67.4766 28.5625C67.6496 28.2189 67.7274 27.8353 67.7018 27.4515V27.3843C67.7145 27.0195 67.6376 26.6572 67.4779 26.329C67.3181 26.0008 67.0803 25.7168 66.7853 25.5018C66.1767 25.03 65.193 24.7941 63.8342 24.7941H57.7869V30.0311H63.9934Z" fill="#F0B90B"/>
<path d="M79.4142 10.8561H84.6405V34.6134H79.4142V10.8561Z" fill="#F0B90B"/>
<path d="M92.549 10.8561H97.3684L108.508 25.4771V10.8561H113.667V34.6134H109.219L97.7151 19.5112V34.6134H92.549V10.8561Z" fill="#F0B90B"/>
<path d="M129.491 10.6862H134.303L144.483 34.6134H139.027L136.854 29.2845H126.809L124.636 34.6134H119.307L129.491 10.6862ZM134.99 24.6703L131.826 16.9635L128.677 24.6703H134.99Z" fill="#F0B90B"/>
<path d="M150.134 10.8561H154.954L166.086 25.4771V10.8561H171.245V34.6134H166.797L155.293 19.5112V34.6134H150.134V10.8561Z" fill="#F0B90B"/>
<path d="M190.055 35.031C188.39 35.0452 186.738 34.7227 185.201 34.0827C183.753 33.4849 182.439 32.6033 181.338 31.49C180.236 30.3767 179.368 29.0541 178.785 27.6002C178.171 26.0793 177.859 24.4529 177.869 22.8126V22.7454C177.842 19.512 179.086 16.3973 181.333 14.0725C182.439 12.937 183.763 12.0367 185.225 11.4258C186.816 10.7668 188.525 10.4381 190.246 10.4598C191.265 10.4522 192.282 10.5434 193.282 10.7322C194.139 10.8942 194.976 11.1444 195.781 11.4788C196.511 11.7862 197.205 12.173 197.851 12.6324C198.481 13.0804 199.072 13.5798 199.62 14.1256L196.297 17.9613C195.448 17.178 194.496 16.5149 193.466 15.9904C192.455 15.5069 191.346 15.2647 190.225 15.2827C189.293 15.2728 188.369 15.4613 187.514 15.8359C186.66 16.2105 185.896 16.7625 185.271 17.4553C184.652 18.1463 184.167 18.9468 183.842 19.8155C183.501 20.7336 183.329 21.7059 183.336 22.6852V22.7524C183.332 23.7303 183.504 24.701 183.842 25.6186C184.163 26.4905 184.643 27.2954 185.257 27.9929C185.877 28.6943 186.639 29.2544 187.494 29.6354C188.349 30.0163 189.275 30.2092 190.211 30.2009C191.403 30.2385 192.585 29.9821 193.654 29.4543C194.672 28.8997 195.613 28.2145 196.453 27.4162L199.779 30.7777C199.192 31.4151 198.557 32.0066 197.879 32.547C197.213 33.0733 196.49 33.5232 195.724 33.888C194.907 34.2724 194.047 34.5564 193.162 34.7337C192.139 34.9388 191.098 35.0384 190.055 35.031Z" fill="#F0B90B"/>
<path d="M205.947 10.8561H223.827V15.5056H211.088V20.325H222.305V24.9746H211.106V29.9639H224.004V34.6134H205.957L205.947 10.8561Z" fill="#F0B90B"/>
</g>
<defs>
<clipPath id="clip0_27_4897">
<rect width="224" height="44.8007" fill="white"/>
</clipPath>
</defs>
</svg>
