<svg width="120" height="24" viewBox="0 0 120 24" fill="none" xmlns="http://www.w3.org/2000/svg">
<g clip-path="url(#clip0_336_24)">
<path d="M7.33982 10.0847L12.0011 5.42525L16.6644 10.0885L19.3751 7.37584L12.0011 0L4.6272 7.37394L7.33982 10.0847Z" fill="#F3BA2F"/>
<path d="M-0.000976562 12.0005L2.71066 9.28885L5.42229 12.0005L2.71066 14.7121L-0.000976562 12.0005Z" fill="#F3BA2F"/>
<path d="M7.33983 13.9157L12.0011 18.577L16.6644 13.9138L19.377 16.6227L19.3751 16.6245L12.0011 24.0004L4.6272 16.6283L4.62341 16.6245L7.33983 13.9157Z" fill="#F3BA2F"/>
<path d="M18.5754 12.0012L21.287 9.28959L23.9986 12.0012L21.287 14.7129L18.5754 12.0012Z" fill="#F3BA2F"/>
<path d="M14.7517 11.9993L12.0011 9.24683L9.96713 11.2808L9.73207 11.514L9.25059 11.9955L9.2468 11.9993L9.25059 12.0049L12.0011 14.7536L14.7517 12.0012L14.7536 11.9993H14.7517Z" fill="#F3BA2F"/>
<path d="M28.2295 5.81567H34.1286C35.5921 5.81567 36.6991 6.1948 37.4498 6.95304C37.7326 7.23313 37.9555 7.56777 38.1051 7.93664C38.2547 8.3055 38.3277 8.70092 38.3199 9.09888V9.13489C38.3249 9.46091 38.2795 9.78574 38.1853 10.0979C38.1013 10.3666 37.9794 10.6219 37.8232 10.8561C37.6776 11.077 37.5015 11.2761 37.3 11.4475C37.1032 11.617 36.8876 11.7632 36.6574 11.8835C37.3212 12.1147 37.918 12.5053 38.3957 13.0209C38.8178 13.5011 39.0288 14.1646 39.0288 15.0113V15.0473C39.0408 15.5761 38.9257 16.1001 38.6933 16.5752C38.468 17.0129 38.1378 17.3881 37.7322 17.6671C37.2736 17.9745 36.763 18.1961 36.2252 18.321C35.5863 18.4726 34.9312 18.5458 34.2746 18.539H28.2295V5.81567ZM33.5372 10.9604C34.0476 10.985 34.5555 10.8752 35.0101 10.6419C35.1874 10.5384 35.3321 10.3872 35.428 10.2056C35.5238 10.0241 35.5668 9.81928 35.5523 9.61449V9.57847C35.5616 9.38977 35.5233 9.20175 35.4408 9.03178C35.3583 8.86182 35.2343 8.71538 35.0802 8.60602C34.7656 8.38234 34.3113 8.27049 33.7173 8.27049H30.9573V10.9604H33.5372ZM34.2822 16.088C34.7907 16.1165 35.2968 16.0002 35.7418 15.7525C35.9152 15.6411 36.0555 15.4853 36.1482 15.3013C36.2409 15.1172 36.2825 14.9117 36.2688 14.7061V14.6701C36.2756 14.4747 36.2344 14.2806 36.1488 14.1047C36.0633 13.9289 35.9359 13.7768 35.7778 13.6616C35.4518 13.4089 34.9248 13.2825 34.1969 13.2825H30.9573V16.088H34.2822Z" fill="#F3BA2F"/>
<path d="M42.5433 5.81567H45.3431V18.5428H42.5433V5.81567Z" fill="#F3BA2F"/>
<path d="M49.5798 5.81567H52.1616L58.129 13.6484V5.81567H60.8928V18.5428H58.51L52.3474 10.4523V18.5428H49.5798V5.81567Z" fill="#F3BA2F"/>
<path d="M69.37 5.72461H71.948L77.4017 18.5428H74.4787L73.3148 15.688H67.9331L66.7692 18.5428H63.9144L69.37 5.72461ZM72.3158 13.2161L70.6211 9.08743L68.934 13.2161H72.3158Z" fill="#F3BA2F"/>
<path d="M80.429 5.81567H83.0109L88.9745 13.6484V5.81567H91.7383V18.5428H89.3555L83.1929 10.4523V18.5428H80.429V5.81567Z" fill="#F3BA2F"/>
<path d="M101.815 18.7665C100.923 18.7741 100.038 18.6013 99.2146 18.2584C98.439 17.9382 97.7353 17.4659 97.1451 16.8695C96.5549 16.2731 96.09 15.5646 95.7778 14.7857C95.4485 13.971 95.2817 13.0997 95.2869 12.2209V12.1849C95.2722 10.4527 95.9387 8.78415 97.1427 7.53874C97.7351 6.93039 98.4443 6.44809 99.2278 6.12082C100.08 5.76779 100.995 5.59172 101.918 5.60332C102.463 5.59925 103.008 5.64813 103.544 5.74928C104.003 5.83604 104.451 5.97008 104.882 6.14926C105.274 6.31392 105.646 6.52116 105.991 6.76723C106.329 7.00722 106.646 7.27479 106.939 7.56718L105.159 9.62202C104.704 9.20241 104.194 8.84715 103.643 8.56617C103.101 8.30716 102.507 8.17738 101.906 8.18704C101.407 8.18171 100.912 8.28274 100.454 8.48341C99.9966 8.68408 99.587 8.97981 99.2525 9.35095C98.9208 9.72114 98.6611 10.1499 98.4867 10.6153C98.304 11.1072 98.2122 11.628 98.2156 12.1527V12.1887C98.2138 12.7126 98.3056 13.2325 98.4867 13.7241C98.6589 14.1912 98.916 14.6224 99.2449 14.9961C99.5767 15.3718 99.9854 15.6719 100.443 15.876C100.901 16.0801 101.397 16.1834 101.899 16.179C102.537 16.1991 103.171 16.0617 103.743 15.779C104.288 15.4819 104.792 15.1148 105.243 14.6871L107.025 16.4879C106.71 16.8294 106.37 17.1463 106.007 17.4357C105.65 17.7177 105.263 17.9587 104.852 18.1542C104.415 18.3601 103.954 18.5122 103.48 18.6072C102.932 18.7171 102.374 18.7704 101.815 18.7665Z" fill="#F3BA2F"/>
<path d="M110.329 5.81567H119.907V8.30651H113.083V10.8883H119.092V13.3792H113.092V16.052H120.002V18.5428H110.334L110.329 5.81567Z" fill="#F3BA2F"/>
</g>
<defs>
<clipPath id="clip0_336_24">
<rect width="120" height="24.0004" fill="white"/>
</clipPath>
</defs>
</svg>
