<svg width="24" height="24" viewBox="0 0 24 24" fill="none" xmlns="http://www.w3.org/2000/svg">
<path d="M11.3848 15.2754C12.4958 15.2714 14.9248 15.2624 14.8968 13.7174C14.8698 12.1374 12.5368 12.2324 11.3998 12.2794C11.2728 12.2844 11.1598 12.2894 11.0678 12.2904L11.1198 15.2774C11.1948 15.2754 11.2848 15.2754 11.3848 15.2754ZM11.2668 10.9224C12.1938 10.9214 14.2168 10.9194 14.1928 9.5144C14.1668 8.0774 12.2238 8.1624 11.2748 8.2044C11.1678 8.2094 11.0748 8.2134 10.9968 8.2144L11.0438 10.9234L11.2668 10.9224Z" fill="#81858C"/>
<path fill-rule="evenodd" clip-rule="evenodd" d="M9.09592 23.6415C15.5259 25.2445 22.0379 21.3315 23.6409 14.9035C25.2439 8.47448 21.3299 1.96248 14.8999 0.360482C8.47392 -1.24352 1.96192 2.67048 0.359921 9.10048C-1.24308 15.5285 2.66992 22.0405 9.09692 23.6425L9.09592 23.6415ZM13.3779 6.62148C15.1319 6.74548 16.5279 7.25948 16.7109 8.86348C16.8469 10.0375 16.3669 10.7525 15.5879 11.1665C16.8879 11.4545 17.7129 12.2095 17.5829 13.9375C17.4219 16.0825 15.8349 16.6855 13.5569 16.8555L13.5949 19.1055L12.2389 19.1305L12.1999 16.9105C11.8489 16.9165 11.4889 16.9205 11.1159 16.9185L11.1559 19.1485L9.79992 19.1725L9.75992 16.9185L9.37692 16.9215C9.18292 16.9225 8.98692 16.9235 8.79092 16.9275L7.02492 16.9575L7.26592 15.3335C7.26592 15.3335 8.26992 15.3315 8.25192 15.3165C8.63592 15.3085 8.73292 15.0315 8.75392 14.8575L8.69292 11.3005L8.78992 11.2985H8.83592C8.78813 11.293 8.74002 11.2907 8.69192 11.2915L8.64792 8.75148C8.59092 8.47748 8.40692 8.16148 7.85792 8.17148C7.87292 8.15148 6.87192 8.18848 6.87192 8.18848L6.84592 6.74048L8.71792 6.70848V6.71548C8.99892 6.71048 9.28792 6.70048 9.58092 6.68948L9.54292 4.46048L10.8989 4.43748L10.9369 6.62148C11.2989 6.60848 11.6629 6.59448 12.0199 6.58848L11.9819 4.41848L13.3389 4.39448L13.3779 6.62348V6.62148Z" fill="#81858C"/>
</svg>
