<svg width="24" height="24" viewBox="0 0 24 24" fill="none" xmlns="http://www.w3.org/2000/svg">
<g id="akar-icons:bitcoin-fill" clip-path="url(#clip0_31_9330)">
<g id="Group">
<g id="Mask group">
<mask id="mask0_31_9330" style="mask-type:luminance" maskUnits="userSpaceOnUse" x="0" y="0" width="24" height="24">
<path id="svgIDa" d="M0 0H24V24H0V0Z" fill="white"/>
</mask>
<g mask="url(#mask0_31_9330)">
<g id="Group_2">
<path id="Vector" d="M11.385 15.2749C12.496 15.2709 14.925 15.2619 14.897 13.7169C14.87 12.1369 12.537 12.2319 11.4 12.2789C11.273 12.2839 11.16 12.2889 11.068 12.2899L11.12 15.2769C11.195 15.2749 11.285 15.2749 11.385 15.2749ZM11.267 10.9219C12.194 10.9209 14.217 10.9189 14.193 9.51391C14.167 8.07691 12.224 8.16191 11.275 8.20391C11.168 8.20891 11.075 8.21291 10.997 8.21391L11.044 10.9229L11.267 10.9219Z" fill="#81858C"/>
<path id="Vector_2" fill-rule="evenodd" clip-rule="evenodd" d="M9.09601 23.641C15.526 25.244 22.038 21.331 23.641 14.903C25.244 8.47399 21.33 1.96199 14.9 0.359994C8.47401 -1.24401 1.96201 2.66999 0.360012 9.09999C-1.24299 15.528 2.67001 22.04 9.09701 23.642L9.09601 23.641ZM13.378 6.62099C15.132 6.74499 16.528 7.25899 16.711 8.86299C16.847 10.037 16.367 10.752 15.588 11.166C16.888 11.454 17.713 12.209 17.583 13.937C17.422 16.082 15.835 16.685 13.557 16.855L13.595 19.105L12.239 19.13L12.2 16.91C11.849 16.916 11.489 16.92 11.116 16.918L11.156 19.148L9.80001 19.172L9.76001 16.918L9.37701 16.921C9.18301 16.922 8.98701 16.923 8.79101 16.927L7.02501 16.957L7.26601 15.333C7.26601 15.333 8.27001 15.331 8.25201 15.316C8.63601 15.308 8.73301 15.031 8.75401 14.857L8.69301 11.3L8.79001 11.298H8.83601C8.78822 11.2925 8.74011 11.2902 8.69201 11.291L8.64801 8.75099C8.59101 8.47699 8.40701 8.16099 7.85801 8.17099C7.87301 8.15099 6.87201 8.18799 6.87201 8.18799L6.84601 6.73999L8.71801 6.70799V6.71499C8.99901 6.70999 9.28801 6.69999 9.58101 6.68899L9.54301 4.45999L10.899 4.43699L10.937 6.62099C11.299 6.60799 11.663 6.59399 12.02 6.58799L11.982 4.41799L13.339 4.39399L13.378 6.62299V6.62099Z" fill="#81858C"/>
</g>
</g>
</g>
</g>
</g>
<defs>
<clipPath id="clip0_31_9330">
<rect width="24" height="24" fill="white"/>
</clipPath>
</defs>
</svg>
