<svg width="24" height="24" viewBox="0 0 24 24" fill="none" xmlns="http://www.w3.org/2000/svg">
<path d="M23.9954 12.3512C23.9909 11.439 23.334 10.6682 22.4353 10.5222C22.3075 10.4994 22.1844 10.4903 22.0612 10.4812V10.3535C22.0612 10.0251 22.0612 9.70125 22.0612 9.37742C22.0612 8.748 21.9243 8.21437 21.6415 7.74458C21.0257 6.73204 20.1087 6.21665 18.9135 6.21209C17.44 6.20753 15.9437 6.20753 14.4976 6.20753C13.9137 6.20753 13.3298 6.20753 12.7459 6.20753C12.7459 6.09806 12.7459 5.9886 12.7459 5.87913C12.7459 5.40935 12.7459 4.92132 12.7367 4.44242C13.6263 4.15507 14.2513 3.32041 14.2923 2.36716C14.3288 1.44128 13.7586 0.538198 12.901 0.177879C12.7869 0.127708 12.6729 0.0957811 12.5634 0.059293C12.5178 0.04561 12.4722 0.031927 12.4265 0.013683L12.3718 0H11.5963L11.5233 0.036488C11.5096 0.041049 11.4959 0.050171 11.4868 0.054732C10.4421 0.323831 9.74415 1.16762 9.7031 2.20296C9.66204 3.20639 10.2825 4.09578 11.2541 4.44242C11.2541 4.82098 11.2541 5.19498 11.2541 5.57355C11.2541 5.78335 11.2541 5.99316 11.2541 6.20296C10.6702 6.20296 10.0863 6.20296 9.50238 6.20296C8.05626 6.20296 6.55997 6.20296 5.08649 6.20296C3.99164 6.20753 3.12032 6.64994 2.49534 7.52109C2.12127 8.04561 1.93423 8.66591 1.93879 9.3683C1.93879 9.69669 1.93879 10.016 1.93879 10.358C1.93879 10.3945 1.93879 10.4356 1.93879 10.4721C1.92055 10.4721 1.9023 10.4721 1.88405 10.4721C1.0766 10.4949 0.378635 10.992 0.109485 11.7355C0.0912374 11.7856 0.0729899 11.8358 0.0547424 11.8814C0.0456187 11.9042 0.036495 11.9316 0.0273712 11.9544L0 12.0274V15.0787L0.0319331 15.1471C0.036495 15.1608 0.0456187 15.1745 0.0547424 15.1881C0.0593043 15.1927 0.0593043 15.2018 0.0638662 15.2064C0.29196 15.9772 0.83026 16.4607 1.62859 16.5975C1.73351 16.6157 1.83843 16.6203 1.93879 16.6203C1.93879 16.6659 1.93879 16.7115 1.93879 16.7617C1.93879 17.1129 1.93879 17.4413 1.93879 17.7742C1.95248 18.9966 2.50447 19.9407 3.52633 20.4971C3.82285 20.6613 4.1513 20.7526 4.46607 20.8438C4.52994 20.862 4.5938 20.8803 4.65767 20.8985C4.65767 21.0855 4.65767 21.268 4.65767 21.455C4.65767 21.9932 4.65767 22.5542 4.65767 23.1015C4.65767 23.293 4.65311 23.699 5.05911 23.9133C5.17772 23.9772 5.29177 24 5.39213 24C5.62935 24 5.82095 23.8723 5.95324 23.7856C6.44136 23.4618 6.92948 23.138 7.41304 22.8096C8.3026 22.2166 9.2241 21.6009 10.1319 20.9943C10.2414 20.9213 10.3372 20.894 10.4695 20.894C13.5761 20.8985 16.3589 20.8985 18.9819 20.894C20.4281 20.894 21.6552 19.9316 21.9654 18.5542C22.0475 18.1984 22.0521 17.8335 22.0566 17.4823C22.0566 17.3546 22.0612 17.236 22.0658 17.1129C22.0749 16.9487 22.0703 16.7799 22.0703 16.6157C22.0886 16.6157 22.1068 16.6157 22.1251 16.6157C23.1743 16.6021 24 15.7674 24.0046 14.7184C24 13.797 24 13.0445 23.9954 12.3512ZM22.5356 14.0433V14.5314C22.5356 14.7047 22.5083 14.9327 22.376 15.0468C22.2984 15.1106 22.1935 15.138 22.0795 15.1471V11.9544C22.1889 11.9544 22.2847 11.9863 22.3577 12.041C22.5083 12.1551 22.5402 12.3558 22.5402 12.5063C22.5356 13.0217 22.5356 13.5325 22.5356 14.0433ZM6.13572 20.7343C6.13572 19.8905 5.7434 19.4709 4.89489 19.4116C4.38396 19.3751 3.98708 19.1517 3.68599 18.7184C3.50352 18.4629 3.41228 18.1665 3.41228 17.8472C3.41228 17.0946 3.41228 16.3375 3.41228 15.5849C3.41228 13.5143 3.41228 11.3706 3.41228 9.26796C3.41228 8.38768 4.10112 7.69441 4.97244 7.69441C7.29899 7.68985 9.64836 7.68985 12.0068 7.68985C14.3425 7.68985 16.6828 7.68985 19.0139 7.69441C19.8898 7.69441 20.574 8.38768 20.5786 9.26796C20.5832 12.0684 20.5832 14.951 20.5786 17.8472C20.5786 18.6819 19.9399 19.3523 19.1006 19.4116C18.9865 19.4208 18.8633 19.4253 18.7356 19.4253H17.1161C14.9538 19.4253 12.7185 19.4253 10.5197 19.4208H10.5151C10.0452 19.4208 9.63011 19.5485 9.24235 19.8084C8.41209 20.374 7.55902 20.9441 6.73332 21.4914C6.5326 21.6237 6.33188 21.756 6.13572 21.8883V21.236C6.13572 21.0673 6.13572 20.8985 6.13572 20.7343ZM12.8097 2.2805C12.8097 2.7366 12.4585 3.09692 12.0068 3.09692C12.0068 3.09692 12.0068 3.09692 12.0023 3.09692C11.7788 3.09692 11.5735 3.01482 11.4229 2.85975C11.2724 2.70467 11.1857 2.49943 11.1903 2.27138C11.1948 1.81984 11.5552 1.45496 11.9977 1.45496H12.0023C12.4448 1.46408 12.8097 1.83352 12.8097 2.2805ZM1.93423 15.1517C1.77913 15.138 1.66508 15.0969 1.59209 15.0285C1.50086 14.9418 1.45524 14.7822 1.45524 14.5542C1.45524 13.9521 1.45524 13.3501 1.45524 12.748V12.5975C1.45524 12.4151 1.48261 12.1733 1.61034 12.0639C1.68789 12 1.8065 11.9726 1.92967 11.9681V13.5234C1.92967 13.683 1.92967 13.8426 1.92967 14.0023C1.93423 14.3808 1.93423 14.7685 1.93423 15.1517Z" fill="#81858C"/>
<path d="M16.6598 14.6736C16.6644 14.6736 16.6644 14.6736 16.669 14.6736C17.2803 14.6691 17.8505 14.4365 18.2793 14.0077C18.7081 13.579 18.9408 13.0089 18.9453 12.3977C18.9453 11.1161 17.9463 10.1081 16.669 10.1035H16.6644C16.0485 10.1035 15.4738 10.3407 15.0449 10.7694C14.6161 11.1982 14.3789 11.7728 14.3789 12.3886C14.3789 13.0043 14.6161 13.579 15.0495 14.0077C15.4738 14.4365 16.0486 14.6736 16.6598 14.6736ZM16.6598 11.5676C16.8742 11.5676 17.0887 11.6588 17.2438 11.8185C17.4034 11.9781 17.4855 12.1833 17.4855 12.3931C17.481 12.8356 17.1023 13.205 16.6598 13.205C16.6598 13.205 16.6598 13.205 16.6553 13.205C16.2082 13.205 15.8433 12.8356 15.8433 12.384C15.8433 11.937 16.2082 11.5676 16.6598 11.5676Z" fill="#81858C"/>
<path d="M7.33547 14.6731C7.94676 14.6731 8.52156 14.4359 8.95037 14.0071C9.38375 13.5784 9.62097 12.9992 9.6164 12.388C9.6164 11.7723 9.37919 11.1976 8.94581 10.7688C8.51243 10.3401 7.93764 10.1029 7.32178 10.1075C6.04446 10.112 5.04541 11.12 5.04541 12.4062C5.04541 13.0174 5.28263 13.5875 5.71144 14.0117C6.14026 14.4359 6.71049 14.673 7.32178 14.6776C7.33091 14.673 7.33547 14.6731 7.33547 14.6731ZM8.15204 12.388C8.15204 12.8395 7.78709 13.2044 7.34003 13.209H7.33547C7.12106 13.209 6.91122 13.1177 6.75155 12.9581C6.59188 12.7985 6.50977 12.5932 6.50977 12.3834C6.51433 11.941 6.89297 11.567 7.33091 11.567C7.33091 11.567 7.33091 11.567 7.33547 11.567C7.78709 11.567 8.15204 11.9364 8.15204 12.388Z" fill="#81858C"/>
<path d="M9.47036 15.9362C9.57073 16.073 9.68933 16.1962 9.82163 16.3056C10.401 16.7846 11.0807 16.9944 12.1071 17.008H12.1299L12.1527 17.0035C12.1847 16.9989 12.2257 16.9944 12.2759 16.9898C12.4219 16.9761 12.6226 16.9579 12.8233 16.9214C13.5578 16.7754 14.1052 16.4653 14.4975 15.9681C14.7667 15.6306 14.7211 15.1836 14.4017 14.9237C14.1007 14.6819 13.7083 14.7093 13.4027 14.9966L13.3844 15.0103C13.2613 15.1243 13.1472 15.2338 13.0241 15.3068C12.7275 15.4801 12.2212 15.5622 11.7285 15.5166C11.213 15.4664 10.7979 15.2885 10.6154 15.0286C10.5059 14.8735 10.3462 14.7777 10.1592 14.7503C9.95848 14.723 9.7532 14.7868 9.58897 14.9282C9.29245 15.1882 9.23771 15.6261 9.47036 15.9362Z" fill="#81858C"/>
</svg>
