<svg width="35" height="36" viewBox="0 0 35 36" fill="none" xmlns="http://www.w3.org/2000/svg">
<g id="Group 39466">
<circle id="Ellipse 63" cx="17.5" cy="18.2588" r="17.5" fill="#FEEB61"/>
<path id="Vector" d="M23.875 13.5587H21.7118L20.7575 11.6645C20.475 11.1045 19.9087 10.7588 19.2754 10.7588H15.7246C15.0913 10.7588 14.525 11.1045 14.2413 11.6645L13.2882 13.5587H11.125C9.95426 13.5587 9 14.5011 9 15.6588V22.6589C9 23.8166 9.95426 24.7588 11.125 24.7588H23.875C25.0457 24.7588 26 23.8166 26 22.6589V15.6588C26 14.5011 25.0457 13.5587 23.875 13.5587ZM20.8054 18.6926C20.8054 20.4941 19.3221 21.9589 17.5 21.9589C15.6779 21.9589 14.1946 20.4931 14.1946 18.6926C14.1946 16.8918 15.6767 15.4251 17.5 15.4251C19.3233 15.4251 20.8054 16.8909 20.8054 18.6926Z" fill="#2E2E2E"/>
</g>
</svg>
