<svg width="25" height="26" viewBox="0 0 25 26" fill="none" xmlns="http://www.w3.org/2000/svg">
<path d="M24.5637 6.83578C24.474 7.21798 24.4126 7.6049 24.2946 7.97767C24.1011 8.59108 23.7613 9.129 23.3365 9.60558C21.6138 11.5496 19.8959 13.4984 18.1637 15.433C17.0782 16.6504 15.7095 17.193 14.0859 17.0468C13.4346 16.9901 12.8069 16.8014 12.2499 16.4381C11.5562 15.9851 11.3343 15.0885 11.7166 14.3619C12.1178 13.6022 13.0004 13.2766 13.7839 13.588C14.001 13.673 14.2275 13.7626 14.4541 13.7909C14.9543 13.8476 15.3744 13.6494 15.7095 13.2766C17.4322 11.3326 19.1596 9.39324 20.8776 7.44447C21.4958 6.74141 21.4298 5.88263 20.7265 5.25506C20.5 5.05216 20.2687 4.84454 20.0422 4.64636C19.3389 4.02823 18.48 4.0707 17.8475 4.76433C17.2906 5.37774 16.7431 6.01003 16.1909 6.62816C15.9738 6.87352 15.7567 7.12361 15.5349 7.36897C14.9071 8.04845 14.067 8.09092 13.3544 7.50109C12.9201 7.13776 12.6464 6.70837 12.6889 6.11855C12.7125 5.78354 12.8352 5.49098 13.057 5.24562C13.883 4.31134 14.6853 3.35347 15.549 2.45223C17.3944 0.531771 20.1602 0.432681 22.1755 2.17383C22.7277 2.65513 23.3035 3.11283 23.7188 3.72624C24.1625 4.38212 24.4409 5.09462 24.5259 5.88263C24.5306 5.92037 24.5495 5.9534 24.5637 5.99115C24.5637 6.26955 24.5637 6.55266 24.5637 6.83578Z" fill="#080808"/>
<path d="M5.58119 25.0588C5.18002 24.9598 4.76468 24.8984 4.37767 24.7569C4.01425 24.6247 3.65083 24.4454 3.33933 24.2142C2.48035 23.5678 1.62136 22.9072 1.07859 21.9446C0.0544178 20.1138 0.262085 18.0235 1.6544 16.4333C3.38181 14.4515 5.1281 12.4839 6.88855 10.5351C8.36582 8.89775 10.5699 8.48252 12.5097 9.42623C13.3687 9.84147 13.7038 10.705 13.3404 11.5449C12.9958 12.347 12.0283 12.7292 11.1788 12.3942C10.8248 12.2527 10.4708 12.1488 10.0838 12.2479C9.75341 12.3329 9.48911 12.5169 9.26256 12.767C7.55875 14.6874 5.85493 16.6079 4.15584 18.5283C3.50452 19.2644 3.56588 20.1185 4.29271 20.7697C4.51454 20.9678 4.73636 21.166 4.96291 21.3642C5.66615 21.9823 6.52513 21.9399 7.15285 21.2462C7.72394 20.6187 8.27614 19.9769 8.84251 19.3447C9.09265 19.0615 9.33336 18.7737 9.6071 18.5095C10.1357 17.9951 10.905 17.9621 11.4997 18.3962C12 18.7596 12.3492 19.2031 12.3162 19.8684C12.2973 20.2129 12.1699 20.5101 11.9481 20.7649C11.1174 21.7039 10.2915 22.6524 9.44191 23.5772C8.67732 24.4124 7.70978 24.8795 6.58649 25.0211C6.53457 25.0258 6.48266 25.0494 6.42602 25.0636C6.14756 25.0588 5.86437 25.0588 5.58119 25.0588Z" fill="#080808"/>
</svg>
