<svg width="25" height="24" viewBox="0 0 25 24" fill="none" xmlns="http://www.w3.org/2000/svg">
<path d="M0 12.7008C0 12.231 0 11.7611 0 11.296C0.0375807 10.9859 0.0657663 10.6805 0.112742 10.3704C0.48855 7.78618 1.54551 5.5262 3.38227 3.66558C6.20552 0.799492 9.64416 -0.384533 13.6277 0.108811C16.2067 0.42831 18.4662 1.51836 20.3171 3.35078C23.3705 6.37193 24.5308 10.0368 23.7839 14.2607C23.3188 16.8919 22.0317 19.1002 20.054 20.8997C18.3394 22.4549 16.3382 23.4322 14.0505 23.8175C13.6042 23.8927 13.1533 23.9397 12.707 24.0007C12.2372 24.0007 11.7675 24.0007 11.3024 24.0007C11.2272 23.9867 11.1521 23.9679 11.0722 23.9585C10.6307 23.9021 10.1844 23.8645 9.7522 23.7799C7.12625 23.2725 4.91368 22.0274 3.1145 20.054C1.5549 18.3437 0.577804 16.3422 0.187904 14.0587C0.108045 13.6123 0.0610687 13.1519 0 12.7008ZM5.71227 8.25603C6.96653 9.50584 8.21139 10.7556 9.47974 12.0195C8.23018 13.2693 6.98062 14.5191 5.76395 15.7361C6.60482 16.5771 7.43629 17.4087 8.29125 18.2639C9.51732 17.0376 10.7669 15.7877 12.0305 14.5238C13.2754 15.769 14.5297 17.0235 15.7463 18.2404C16.5872 17.3993 17.4187 16.5677 18.2736 15.7126C17.0476 14.4863 15.798 13.2365 14.5344 11.9726C15.7839 10.7274 17.0335 9.47764 18.2501 8.26073C17.4093 7.415 16.5778 6.58336 15.7228 5.72823C14.4921 6.95454 13.2472 8.20435 11.9789 9.46825C10.734 8.22314 9.47974 6.96864 8.23488 5.72353C7.39871 6.56457 6.57193 7.3915 5.71227 8.25603Z" fill="#828282"/>
</svg>
