<svg width="16" height="16" viewBox="0 0 16 16" fill="none" xmlns="http://www.w3.org/2000/svg">
<path d="M12.8357 15.5569C11.2141 13.949 9.59258 12.3324 7.9535 10.7071C6.30565 12.3411 4.67534 13.9577 3.04503 15.583C2.10716 14.6183 1.19559 13.6883 0.275247 12.7409C1.85297 11.1851 3.49205 9.57722 5.12236 7.9606C3.45699 6.30922 1.81791 4.69261 0.222656 3.11076C1.19559 2.1547 2.11592 1.2421 3.04503 0.320801C4.61398 1.87657 6.25306 3.50188 7.9272 5.15326C9.61011 3.49319 11.2404 1.87657 12.8532 0.277344C13.7823 1.19864 14.7026 2.11124 15.6317 3.03254C14.0102 4.63177 12.3799 6.23969 10.7408 7.865C12.4149 9.52507 14.0453 11.1417 15.658 12.7322C14.7026 13.697 13.7911 14.6096 12.8357 15.5569Z" fill="#565657"/>
</svg>
