<svg width="18" height="18" viewBox="0 0 18 18" fill="none" xmlns="http://www.w3.org/2000/svg">
<path d="M9.00008 0.666626C4.40508 0.666626 0.666748 4.40496 0.666748 8.99996C0.666748 13.595 4.40508 17.3333 9.00008 17.3333C13.5951 17.3333 17.3334 13.595 17.3334 8.99996C17.3334 4.40496 13.5951 0.666626 9.00008 0.666626ZM9.83341 13.0958V14H8.16675V13.1C6.21758 12.7941 5.66675 11.4316 5.66675 10.6666H7.33341C7.34258 10.7858 7.46591 11.5 9.00008 11.5C10.1501 11.5 10.6667 11.0125 10.6667 10.6666C10.6667 10.3966 10.6667 9.83329 9.00008 9.83329C6.10008 9.83329 5.66675 8.26663 5.66675 7.33329C5.66675 6.25996 6.52425 5.17996 8.16675 4.90413V4.00996H9.83341V4.93413C11.2784 5.27579 11.8334 6.47829 11.8334 7.33329H11.0001L10.1667 7.34829C10.1551 7.03163 9.98758 6.49996 9.00008 6.49996C7.91758 6.49996 7.33341 6.92996 7.33341 7.33329C7.33341 7.64496 7.33341 8.16663 9.00008 8.16663C11.9001 8.16663 12.3334 9.73329 12.3334 10.6666C12.3334 11.74 11.4759 12.82 9.83341 13.0958Z" fill="#81858C"/>
</svg>
