<svg width="24" height="24" viewBox="0 0 24 24" fill="none" xmlns="http://www.w3.org/2000/svg">
<path d="M12 24C5.39343 24 -0.0131627 18.5802 2.40711e-05 11.9604C0.0132109 5.39341 5.4198 0 12 0C18.6066 0 24.0132 5.41978 24 12.0396C23.9868 18.6198 18.5934 24 12 24ZM9.58684 13.6879C9.49453 13.6484 9.45497 13.6352 9.4286 13.6088C8.65057 12.8308 7.88574 12.0659 7.10772 11.2879C5.59123 9.75824 5.88134 9.81099 4.37805 11.3011C3.85057 11.8286 3.85057 12.0264 4.36486 12.5407C5.85497 14.044 7.35827 15.5473 8.84838 17.0506C9.45497 17.6571 9.63958 17.6571 10.2462 17.0506C12.9627 14.3341 15.6923 11.6044 18.4088 8.88791C19.0418 8.25495 19.0418 8.12308 18.4352 7.5033C18.2242 7.27912 18 7.06813 17.789 6.85714C17.1956 6.26374 17.0506 6.26374 16.4572 6.85714C14.3341 8.98022 12.2242 11.0901 10.1011 13.2132C9.9297 13.3846 9.74508 13.5429 9.58684 13.6879Z" fill="#10B866"/>
</svg>
