<svg width="246" height="111" viewBox="0 0 246 111" fill="none" xmlns="http://www.w3.org/2000/svg">
<g id="Frame 48635">
<g id="Group">
<g id="vkZbHA.tif_1_">
<g id="Group_2">
<path id="Vector" d="M66 0C88.3205 0 110.619 0 132.939 0.0225005C133.434 0.0225005 134.042 0.247506 134.402 0.607514C139.217 5.22012 143.987 9.85523 148.757 14.5128C149.027 14.7828 149.274 15.1878 149.274 15.5479C149.297 20.273 149.297 24.9756 149.274 29.7007C149.274 29.7682 149.207 29.8132 149.162 29.9032C147.609 29.1832 146.079 28.4407 144.527 27.7206C143.762 27.3606 142.637 27.2706 142.254 26.6856C141.849 26.0331 142.097 24.9531 142.097 24.0531C142.074 22.3655 142.074 20.678 142.074 19.0129C142.074 18.9454 142.029 18.8779 141.962 18.6529C138.069 18.6529 134.132 18.6529 130.081 18.6529C130.081 14.7828 130.081 11.0478 130.081 7.26767C111.091 7.26767 92.2131 7.26767 73.2452 7.26767C73.2452 38.4309 73.2452 69.5716 73.2452 100.802C96.1507 100.802 119.034 100.802 142.074 100.802C142.074 100.375 142.074 99.9923 142.074 99.5873C142.074 96.2572 142.097 92.9271 142.052 89.5971C142.052 88.8771 142.277 88.5845 142.952 88.292C144.774 87.5495 146.552 86.672 148.352 85.8395C148.622 85.727 148.869 85.592 149.207 85.457C149.207 93.0171 149.207 100.487 149.207 108.07C148.734 108.07 148.352 108.07 147.947 108.07C120.991 108.07 94.0356 108.07 67.1025 108.07C66.7425 108.07 66.36 108.025 66 107.98C66 72.0017 66 36.0008 66 0Z" fill="#DCDCDC"/>
<path id="Vector_2" d="M162.212 57.6691C162.302 72.0695 150.489 87.0548 132.466 87.3023C118.201 87.5273 103.148 75.1971 102.811 58.1192C102.496 42.2338 115.411 28.441 131.296 27.8785C148.149 27.271 162.302 40.7038 162.212 57.6691ZM132.444 79.7647C145.089 79.8547 154.832 69.3469 154.787 57.3541C154.742 44.9114 143.649 35.1236 132.331 35.3261C119.799 35.5286 110.393 45.4739 110.348 57.3991C110.258 69.9319 120.406 79.9672 132.444 79.7647Z" fill="#DCDCDC"/>
<path id="Vector_3" d="M158.657 79.4043C166.104 87.1895 173.507 94.8847 181 102.692C178.772 104.83 176.59 106.945 174.295 109.127C166.847 101.365 159.422 93.6246 151.952 85.8394C154.202 83.6794 156.407 81.5643 158.657 79.4043Z" fill="#DCDCDC"/>
<path id="Vector_4" d="M104.724 74.4989C97.6359 74.4989 90.6607 74.5214 83.7081 74.4764C81.9755 74.4764 80.8955 73.1939 80.8955 71.4613C80.8955 69.7063 81.998 68.4912 83.7306 68.4912C89.6032 68.4687 95.4758 68.4687 101.348 68.4912C101.618 68.4912 102.023 68.6712 102.136 68.8963C103.014 70.7188 103.824 72.5638 104.724 74.4989Z" fill="#DCDCDC"/>
<path id="Vector_5" d="M92.2131 28.9578C89.783 28.9578 87.353 28.9578 84.9229 28.9578C82.9204 28.9353 81.7504 27.8328 81.7279 25.9878C81.7054 24.0977 82.8979 22.9502 84.9679 22.9502C89.828 22.9502 94.7107 22.9502 99.5708 22.9502C101.641 22.9502 102.833 24.0977 102.833 25.9878C102.811 27.8778 101.618 28.9578 99.5258 28.9803C97.0732 28.9578 94.6431 28.9578 92.2131 28.9578Z" fill="#DCDCDC"/>
<path id="Vector_6" d="M92.1678 38.6331C89.7377 38.6331 87.3077 38.6331 84.8776 38.6331C82.8976 38.6331 81.7275 37.5081 81.7275 35.6405C81.7275 33.818 82.8526 32.648 84.7876 32.648C89.7602 32.6255 94.7328 32.6255 99.728 32.648C101.685 32.6705 102.878 33.8855 102.833 35.7305C102.788 37.5531 101.64 38.6556 99.728 38.6556C97.1854 38.6331 94.6653 38.6331 92.1678 38.6331Z" fill="#DCDCDC"/>
<path id="Vector_7" d="M101.573 48.0603C101.123 50.1304 100.718 52.0429 100.268 54.068C98.2658 54.068 96.2858 54.068 94.3057 54.068C90.8632 54.068 87.4206 54.0905 83.978 54.0455C81.3904 54.023 79.9954 51.4579 81.4354 49.3203C81.8404 48.7353 82.7405 48.1278 83.4155 48.1053C89.4681 48.0153 95.4758 48.0603 101.573 48.0603Z" fill="#DCDCDC"/>
<path id="Vector_8" d="M100.088 57.7131C100.268 59.7832 100.449 61.6957 100.606 63.6983C94.7784 63.6983 89.0407 63.7433 83.3031 63.6758C81.8631 63.6533 80.9181 62.3482 80.8955 60.7957C80.8505 59.3107 81.8181 58.0281 83.2131 57.7806C83.6181 57.7131 84.0231 57.7131 84.4506 57.7131C89.2657 57.7131 94.0809 57.7131 98.896 57.7131C99.256 57.7131 99.6385 57.7131 100.088 57.7131Z" fill="#DCDCDC"/>
<path id="Vector_9" d="M128.619 90.0244C128.259 90.0469 127.944 90.1144 127.606 90.1144C122.679 90.1144 117.729 90.1369 112.801 90.1144C110.214 90.0919 108.863 87.5944 110.236 85.3893C110.956 84.1968 113.026 83.6343 114.219 84.4443C118.561 87.3919 123.354 89.1694 128.529 89.8894C128.529 89.8669 128.551 89.9344 128.619 90.0244Z" fill="#DCDCDC"/>
<path id="Vector_10" d="M142.187 40.793C144.617 42.098 146.462 43.898 148.104 45.9231C149.004 47.0256 149.342 48.1731 149.319 49.6132C149.252 55.1483 149.252 60.6834 149.319 66.2186C149.319 67.3211 149.049 68.2211 148.397 69.0986C146.732 71.3262 144.752 73.2162 142.187 74.6562C142.187 63.3385 142.187 52.1332 142.187 40.793Z" fill="#DCDCDC"/>
<path id="Vector_11" d="M112.778 57.7358C118.111 57.7358 123.061 57.7133 128.034 57.7584C129.744 57.7809 130.779 59.0409 130.756 60.8184C130.734 62.551 129.721 63.721 128.034 63.7435C123.376 63.7885 118.696 63.766 113.768 63.766C113.453 61.7859 113.138 59.8284 112.778 57.7358Z" fill="#DCDCDC"/>
<path id="Vector_12" d="M113.048 54.046C113.881 51.9985 114.578 50.2209 115.343 48.4659C115.433 48.2409 115.861 48.0609 116.131 48.0609C120.091 48.0384 124.074 48.0159 128.034 48.0609C129.654 48.0834 130.666 49.2084 130.734 50.896C130.801 52.606 129.879 53.7535 128.304 54.001C128.146 54.0235 128.011 54.046 127.854 54.046C123.084 54.046 118.313 54.046 113.048 54.046Z" fill="#DCDCDC"/>
<path id="Vector_13" d="M116.221 68.5132C120.384 68.5132 124.321 68.4682 128.281 68.5357C129.767 68.5582 130.689 69.7733 130.757 71.3483C130.824 72.9683 129.947 74.2959 128.439 74.4084C126.549 74.5434 124.636 74.4759 122.724 74.4759C122.476 74.4759 122.229 74.3184 122.026 74.1834C119.754 72.7658 117.864 70.9208 116.221 68.5132Z" fill="#DCDCDC"/>
</g>
</g>
</g>
</g>
</svg>
