<svg width="252" height="75" viewBox="0 0 252 75" fill="none" xmlns="http://www.w3.org/2000/svg">
<g clip-path="url(#clip0_29_7204)">
<path d="M242.667 1.49333C244.746 1.49333 246.74 2.31933 248.21 3.78962C249.681 5.2599 250.507 7.25404 250.507 9.33333V65.3333C250.507 67.4126 249.681 69.4068 248.21 70.8771C246.74 72.3473 244.746 73.1733 242.667 73.1733H9.33333C7.25404 73.1733 5.2599 72.3473 3.78962 70.8771C2.31933 69.4068 1.49333 67.4126 1.49333 65.3333V9.33333C1.49333 7.25404 2.31933 5.2599 3.78962 3.78962C5.2599 2.31933 7.25404 1.49333 9.33333 1.49333H242.667ZM242.667 0H9.33333C6.85798 0 4.48401 0.983331 2.73367 2.73367C0.98333 4.48401 0 6.85798 0 9.33333V65.3333C0 67.8087 0.98333 70.1827 2.73367 71.933C4.48401 73.6833 6.85798 74.6667 9.33333 74.6667H242.667C245.142 74.6667 247.516 73.6833 249.266 71.933C251.017 70.1827 252 67.8087 252 65.3333V9.33333C252 6.85798 251.017 4.48401 249.266 2.73367C247.516 0.983331 245.142 0 242.667 0Z" fill="#2E2E2E"/>
<path d="M127.195 40.6C125.627 40.6074 124.097 41.0789 122.798 41.9551C121.498 42.8313 120.487 44.0729 119.892 45.5231C119.297 46.9734 119.146 48.5674 119.456 50.1038C119.766 51.6402 120.525 53.0503 121.636 54.1561C122.747 55.2619 124.16 56.0137 125.698 56.3168C127.236 56.6199 128.829 56.4607 130.277 55.8591C131.724 55.2576 132.961 54.2407 133.831 52.9369C134.701 51.6331 135.166 50.1008 135.166 48.5333C135.181 47.4841 134.985 46.4426 134.589 45.4708C134.193 44.4989 133.606 43.6166 132.863 42.8764C132.119 42.1362 131.234 41.5532 130.26 41.1621C129.286 40.771 128.244 40.5798 127.195 40.6ZM127.195 53.3493C126.231 53.4167 125.269 53.1926 124.434 52.706C123.599 52.2195 122.93 51.493 122.513 50.6211C122.097 49.7491 121.952 48.772 122.098 47.8168C122.244 46.8616 122.675 45.9724 123.333 45.2649C123.991 44.5573 124.847 44.0641 125.789 43.8494C126.731 43.6347 127.716 43.7084 128.616 44.0609C129.516 44.4135 130.288 45.0285 130.834 45.8261C131.38 46.6237 131.673 47.567 131.675 48.5333C131.705 49.1456 131.612 49.7577 131.402 50.3336C131.192 50.9094 130.868 51.4373 130.451 51.8862C130.033 52.335 129.53 52.6957 128.971 52.947C128.412 53.1983 127.808 53.3351 127.195 53.3493ZM109.816 40.6C108.248 40.6037 106.716 41.0721 105.414 41.9461C104.112 42.82 103.098 44.0603 102.5 45.5103C101.903 46.9602 101.748 48.5548 102.056 50.0924C102.364 51.6301 103.122 53.042 104.232 54.1496C105.342 55.2572 106.756 56.011 108.294 56.3156C109.832 56.6202 111.427 56.462 112.875 55.861C114.324 55.26 115.562 54.2431 116.432 52.9389C117.303 51.6347 117.768 50.1016 117.768 48.5333C117.783 47.4841 117.587 46.4426 117.192 45.4708C116.796 44.4989 116.209 43.6166 115.465 42.8764C114.722 42.1362 113.836 41.5532 112.863 41.1621C111.889 40.771 110.847 40.5798 109.798 40.6H109.816ZM109.816 53.3493C108.852 53.4205 107.888 53.1997 107.051 52.7157C106.214 52.2316 105.542 51.5067 105.122 50.6354C104.703 49.764 104.555 48.7865 104.699 47.8302C104.843 46.8739 105.271 45.983 105.929 45.2735C106.586 44.5641 107.441 44.0689 108.384 43.8525C109.326 43.6361 110.312 43.7085 111.213 44.0602C112.114 44.4119 112.888 45.0267 113.435 45.8245C113.981 46.6224 114.275 47.5662 114.278 48.5333C114.308 49.1456 114.215 49.7577 114.005 50.3336C113.794 50.9094 113.471 51.4373 113.053 51.8862C112.636 52.335 112.133 52.6957 111.573 52.947C111.014 53.1983 110.41 53.3351 109.798 53.3493H109.816ZM89.1149 43.0453V46.4053H97.1789C97.0524 47.9879 96.3946 49.4812 95.3122 50.6427C94.5054 51.4644 93.5356 52.1082 92.465 52.5326C91.3945 52.9569 90.2469 53.1525 89.0962 53.1067C86.7199 53.1067 84.4409 52.1627 82.7605 50.4823C81.0802 48.802 80.1362 46.523 80.1362 44.1467C80.1362 41.7703 81.0802 39.4913 82.7605 37.811C84.4409 36.1307 86.7199 35.1867 89.0962 35.1867C91.3694 35.1496 93.5646 36.0155 95.2002 37.5947L97.5709 35.224C96.4667 34.1059 95.1493 33.2208 93.6968 32.6212C92.2443 32.0216 90.6862 31.7197 89.1149 31.7333C87.4554 31.6687 85.8 31.9398 84.2478 32.5303C82.6956 33.1208 81.2786 34.0186 80.0816 35.1699C78.8847 36.3211 77.9325 37.7022 77.2821 39.2302C76.6316 40.7583 76.2964 42.4019 76.2964 44.0627C76.2964 45.7234 76.6316 47.367 77.2821 48.8951C77.9325 50.4231 78.8847 51.8042 80.0816 52.9554C81.2786 54.1067 82.6956 55.0045 84.2478 55.595C85.8 56.1855 87.4554 56.4566 89.1149 56.392C90.7127 56.4642 92.3074 56.1933 93.7917 55.5977C95.2761 55.002 96.6156 54.0953 97.7202 52.9387C99.6759 50.79 100.72 47.9654 100.632 45.0613C100.638 44.3538 100.576 43.6474 100.446 42.952L89.1149 43.0453ZM173.694 45.6587C173.207 44.2264 172.296 42.9759 171.083 42.0725C169.87 41.1692 168.411 40.6557 166.899 40.6C165.878 40.598 164.867 40.8054 163.929 41.2095C162.992 41.6136 162.147 42.2057 161.447 42.9492C160.747 43.6928 160.207 44.572 159.861 45.5324C159.514 46.4929 159.368 47.5142 159.432 48.5333C159.41 49.5766 159.597 50.6138 159.984 51.5829C160.372 52.552 160.95 53.4331 161.685 54.1736C162.421 54.9141 163.298 55.4988 164.264 55.8928C165.23 56.2868 166.266 56.482 167.31 56.4667C168.615 56.4737 169.902 56.1568 171.056 55.5444C172.209 54.9319 173.192 54.043 173.918 52.9573L171.211 51.0907C170.807 51.7641 170.235 52.3212 169.551 52.7073C168.867 53.0934 168.095 53.2953 167.31 53.2933C166.501 53.3241 165.702 53.111 165.016 52.6815C164.33 52.2521 163.79 51.6262 163.464 50.8853L174.086 46.4987L173.694 45.6587ZM162.867 48.3093C162.829 47.7319 162.907 47.1528 163.096 46.6059C163.284 46.0589 163.58 45.5551 163.966 45.124C164.352 44.6929 164.82 44.3431 165.343 44.0952C165.866 43.8472 166.433 43.7061 167.011 43.68C167.613 43.6403 168.214 43.7784 168.738 44.077C169.262 44.3757 169.687 44.8218 169.96 45.36L162.867 48.3093ZM154.243 56H157.734V32.6667H154.243V56ZM148.531 42.3733H148.4C147.874 41.7851 147.23 41.3148 146.509 40.9931C145.788 40.6714 145.008 40.5056 144.219 40.5067C142.179 40.6056 140.255 41.4856 138.847 42.9643C137.438 44.443 136.652 46.407 136.652 48.4493C136.652 50.4916 137.438 52.4557 138.847 53.9344C140.255 55.4131 142.179 56.2931 144.219 56.392C145.01 56.4053 145.794 56.245 146.517 55.9225C147.239 55.6 147.882 55.1231 148.4 54.5253H148.512V55.664C148.512 58.7067 146.888 60.3307 144.275 60.3307C143.404 60.3103 142.56 60.0314 141.848 59.5294C141.137 59.0275 140.591 58.3252 140.28 57.512L137.238 58.7813C137.81 60.1745 138.786 61.3649 140.04 62.1997C141.294 63.0345 142.769 63.4757 144.275 63.4667C148.363 63.4667 151.742 61.0587 151.742 55.1973V41.0667H148.531V42.3733ZM144.536 53.3493C143.332 53.2432 142.211 52.6899 141.395 51.7984C140.579 50.907 140.126 49.7421 140.126 48.5333C140.126 47.3246 140.579 46.1596 141.395 45.2682C142.211 44.3767 143.332 43.8234 144.536 43.7173C145.133 43.748 145.718 43.8978 146.256 44.1579C146.794 44.4181 147.275 44.7833 147.67 45.2321C148.065 45.6809 148.366 46.2042 148.556 46.7712C148.745 47.3381 148.819 47.9373 148.774 48.5333C148.824 49.1319 148.753 49.7347 148.565 50.3051C148.376 50.8755 148.074 51.4017 147.676 51.8519C147.278 52.302 146.793 52.6669 146.25 52.9242C145.707 53.1816 145.118 53.3262 144.518 53.3493H144.536ZM190.046 32.6667H181.702V56H185.192V47.152H190.064C191.059 47.2235 192.058 47.0892 192.999 46.7576C193.939 46.426 194.802 45.9042 195.532 45.2246C196.262 44.5451 196.844 43.7224 197.242 42.8079C197.64 41.8934 197.846 40.9067 197.846 39.9093C197.846 38.9119 197.64 37.9252 197.242 37.0107C196.844 36.0962 196.262 35.2735 195.532 34.594C194.802 33.9145 193.939 33.3926 192.999 33.061C192.058 32.7294 191.059 32.5952 190.064 32.6667H190.046ZM190.046 43.8667H185.174V35.9147H190.12C191.182 35.9147 192.201 36.3365 192.951 37.0874C193.702 37.8383 194.124 38.8567 194.124 39.9187C194.124 40.9806 193.702 41.999 192.951 42.7499C192.201 43.5008 191.182 43.9227 190.12 43.9227L190.046 43.8667ZM211.568 40.5067C210.297 40.4307 209.032 40.7277 207.928 41.3611C206.823 41.9945 205.928 42.9367 205.352 44.072L208.451 45.36C208.756 44.7969 209.219 44.3348 209.782 44.0299C210.346 43.725 210.986 43.5904 211.624 43.6427C212.067 43.5909 212.516 43.6279 212.945 43.7515C213.374 43.8751 213.773 44.0829 214.121 44.3626C214.468 44.6424 214.757 44.9886 214.969 45.3809C215.181 45.7733 215.313 46.204 215.358 46.648V46.8907C214.236 46.297 212.986 45.9893 211.718 45.9947C208.376 45.9947 204.998 47.8613 204.998 51.24C205.031 51.9604 205.208 52.6669 205.518 53.3177C205.829 53.9685 206.267 54.5504 206.807 55.0289C207.346 55.5075 207.976 55.8731 208.659 56.104C209.342 56.3349 210.065 56.4265 210.784 56.3733C211.663 56.4364 212.543 56.2618 213.331 55.8676C214.12 55.4735 214.787 54.8744 215.264 54.1333H215.376V56H218.736V47.0213C218.736 42.9333 215.638 40.5627 211.662 40.5627L211.568 40.5067ZM211.139 53.2933C210 53.2933 208.414 52.7147 208.414 51.3147C208.414 49.448 210.392 48.832 212.147 48.832C213.256 48.8046 214.352 49.0754 215.32 49.616C215.203 50.6266 214.725 51.561 213.974 52.247C213.223 52.9331 212.249 53.3245 211.232 53.3493L211.139 53.2933ZM230.982 41.0667L226.987 51.184H226.875L222.731 41.0667H218.998L225.214 55.216L221.667 63.0747H225.307L234.864 41.0667H230.982ZM199.603 56H203.094V32.6667H199.603V56Z" fill="#2E2E2E"/>
<path d="M88.4008 19.2313C88.4326 19.916 88.3249 20.6 88.0842 21.2417C87.8435 21.8835 87.475 22.4697 87.0008 22.9647C86.4715 23.5146 85.8322 23.9467 85.1246 24.233C84.417 24.5192 83.657 24.6531 82.8942 24.626C81.7368 24.6169 80.6079 24.2665 79.6488 23.6186C78.6897 22.9708 77.9432 22.0543 77.5027 20.984C77.0622 19.9137 76.9474 18.7372 77.1726 17.6019C77.3979 16.4666 77.9531 15.4231 78.7688 14.602C79.305 14.0547 79.9477 13.6231 80.6573 13.3342C81.3669 13.0452 82.1282 12.9049 82.8942 12.922C83.6833 12.9194 84.4647 13.0782 85.1902 13.3887C85.8656 13.6611 86.467 14.0897 86.9448 14.6393L85.9555 15.6287C85.583 15.1855 85.1124 14.8351 84.5811 14.605C84.0498 14.375 83.4723 14.2717 82.8942 14.3033C82.3111 14.3005 81.7335 14.4154 81.1959 14.6412C80.6583 14.867 80.1719 15.199 79.7657 15.6173C79.3596 16.0357 79.0421 16.5318 78.8323 17.0758C78.6225 17.6198 78.5247 18.2006 78.5449 18.7833C78.5326 19.6534 78.7784 20.5077 79.2511 21.2383C79.7238 21.9689 80.4023 22.5432 81.201 22.8886C81.9997 23.234 82.8828 23.3352 83.7389 23.1793C84.5951 23.0234 85.3858 22.6175 86.0115 22.0127C86.5859 21.3902 86.9172 20.5819 86.9448 19.7353H82.8942V18.3913H88.3262C88.376 18.6685 88.401 18.9497 88.4008 19.2313ZM96.9502 14.5647H91.9102V18.1113H96.5022V19.4553H91.9102V23.002H96.9502V24.3833H90.4169V13.1833H96.9502V14.5647ZM103.073 24.3833H101.636V14.5647H98.4995V13.1833H106.284V14.5647H103.073V24.3833ZM111.772 24.3833V13.1833H113.209V24.3833H111.772ZM119.593 24.3833H118.156V14.5647H115.02V13.1833H122.71V14.5647H119.593V24.3833ZM137.289 22.9273C136.198 24.0125 134.721 24.6216 133.182 24.6216C131.643 24.6216 130.167 24.0125 129.076 22.9273C128.015 21.8046 127.424 20.3185 127.424 18.774C127.424 17.2294 128.015 15.7434 129.076 14.6207C129.613 14.0788 130.253 13.6488 130.958 13.3554C131.663 13.0619 132.419 12.9108 133.182 12.9108C133.946 12.9108 134.702 13.0619 135.406 13.3554C136.111 13.6488 136.751 14.0788 137.289 14.6207C138.354 15.7413 138.948 17.2281 138.948 18.774C138.948 20.3199 138.354 21.8067 137.289 22.9273ZM130.14 21.994C130.948 22.7987 132.042 23.2506 133.182 23.2506C134.323 23.2506 135.417 22.7987 136.225 21.994C137.022 21.1148 137.464 19.9703 137.464 18.7833C137.464 17.5963 137.022 16.4518 136.225 15.5727C135.417 14.7679 134.323 14.3161 133.182 14.3161C132.042 14.3161 130.948 14.7679 130.14 15.5727C129.342 16.4518 128.9 17.5963 128.9 18.7833C128.9 19.9703 129.342 21.1148 130.14 21.994ZM140.966 24.3833V13.1833H142.721L148.172 21.9007V13.1833H149.609V24.3833H148.116L142.422 15.2553V24.3833H140.966Z" fill="#2E2E2E"/>
<path fill-rule="evenodd" clip-rule="evenodd" d="M133.182 13.0975C132.443 13.0975 131.712 13.2437 131.03 13.5277C130.348 13.8114 129.73 14.227 129.21 14.7505C128.183 15.8384 127.611 17.2779 127.611 18.774C127.611 20.2699 128.183 21.7092 129.209 22.797C130.265 23.8461 131.694 24.435 133.182 24.435C134.671 24.435 136.099 23.846 137.155 22.7968C138.186 21.7111 138.761 20.2711 138.761 18.774C138.761 17.2767 138.186 15.8365 137.155 14.7508C136.635 14.2271 136.016 13.8114 135.335 13.5277C134.653 13.2437 133.921 13.0975 133.182 13.0975ZM130.886 13.183C131.614 12.8801 132.394 12.7242 133.182 12.7242C133.97 12.7242 134.751 12.8801 135.478 13.183C136.206 13.486 136.866 13.9299 137.421 14.4891L137.424 14.492C138.522 15.6473 139.134 17.1802 139.134 18.774C139.134 20.3677 138.522 21.9006 137.424 23.0559L137.421 23.0597C136.294 24.1797 134.77 24.8083 133.182 24.8083C131.594 24.8083 130.07 24.1796 128.944 23.0597L128.94 23.0556C127.846 21.8982 127.237 20.3662 127.237 18.774C127.237 17.1818 127.846 15.6499 128.94 14.4925L128.943 14.4891C129.498 13.9298 130.159 13.486 130.886 13.183ZM82.89 13.1086C82.1496 13.0921 81.4136 13.2277 80.7277 13.5071C80.0418 13.7864 79.4205 14.2035 78.9022 14.7326L78.9013 14.7336C78.1114 15.5286 77.5738 16.539 77.3557 17.6382C77.1376 18.7374 77.2488 19.8766 77.6753 20.9129C78.1018 21.9492 78.8246 22.8367 79.7533 23.464C80.6819 24.0913 81.775 24.4306 82.8956 24.4393L82.9008 24.4394C83.6374 24.4656 84.3713 24.3364 85.0546 24.0599C85.7378 23.7836 86.355 23.3663 86.8662 22.8354C87.3227 22.3587 87.6776 21.7942 87.9094 21.1762C88.1412 20.5581 88.2449 19.8994 88.2144 19.24L88.4008 19.2313L88.2142 19.2312C88.2143 19.0126 88.1986 18.7943 88.1674 18.578H83.0809V19.5487H87.1377L87.1314 19.7414C87.1023 20.6327 86.7535 21.4838 86.1487 22.1392L86.1415 22.1471C85.4893 22.7775 84.6648 23.2005 83.7724 23.3629C82.88 23.5254 81.9594 23.42 81.1269 23.0599C80.2944 22.6999 79.5871 22.1013 79.0944 21.3397C78.6024 20.5794 78.3463 19.6907 78.3581 18.7852C78.3378 18.1789 78.4398 17.5747 78.6581 17.0086C78.877 16.4411 79.2081 15.9237 79.6318 15.4873C80.0554 15.0509 80.5629 14.7046 81.1236 14.4691C81.6827 14.2343 82.2832 14.1144 82.8896 14.1166C83.4947 14.0844 84.0991 14.193 84.6553 14.4337C85.1509 14.6483 85.5962 14.9627 85.9637 15.3565L86.6873 14.6329C86.2491 14.1672 85.7147 13.8015 85.1204 13.5618L85.1167 13.5603C84.4146 13.2598 83.6585 13.1061 82.8948 13.1087L82.89 13.1086ZM88.5875 19.227C88.6198 19.9355 88.508 20.6432 88.259 21.3073C88.0094 21.9727 87.6273 22.5805 87.1357 23.0938C86.5881 23.6626 85.9265 24.1099 85.1946 24.406C84.4635 24.7018 83.6783 24.8403 82.8901 24.8126C81.6969 24.8028 80.5331 24.4413 79.5443 23.7733C78.5548 23.1049 77.7845 22.1593 77.3301 21.055C76.8756 19.9507 76.7571 18.7369 76.9895 17.5656C77.2219 16.3945 77.7946 15.318 78.636 14.4709C79.1899 13.9055 79.8539 13.4598 80.5869 13.1613C81.3194 12.863 82.1053 12.718 82.896 12.7353C83.7091 12.7329 84.5142 12.8966 85.2618 13.2163C85.9639 13.4998 86.5889 13.9455 87.0857 14.5168L87.1999 14.6482L85.9436 15.9046L85.8126 15.7488C85.4587 15.3278 85.0117 14.9949 84.5069 14.7763C84.0022 14.5578 83.4536 14.4597 82.9044 14.4897L82.8933 14.4903C82.3353 14.4876 81.7826 14.5972 81.2682 14.8133C80.7538 15.0293 80.2883 15.347 79.8997 15.7474C79.511 16.1477 79.2072 16.6224 79.0065 17.1429C78.8057 17.6635 78.7122 18.2193 78.7314 18.7769L78.7317 18.7859C78.72 19.6192 78.9551 20.4372 79.4078 21.1369C79.8605 21.8366 80.5102 22.3865 81.2751 22.7173C82.04 23.0481 82.8856 23.1449 83.7055 22.9957C84.5236 22.8467 85.2794 22.4593 85.8779 21.8822C86.376 21.3407 86.6803 20.6513 86.7464 19.922H82.7075V18.2047H88.4823L88.5099 18.3583C88.5614 18.645 88.5874 18.9357 88.5875 19.227ZM90.2302 12.9967H97.1369V14.7513H92.0969V17.9247H96.6888V19.642H92.0969V22.8153H97.1369V24.57H90.2302V12.9967ZM90.6035 13.37V24.1967H96.7635V23.1887H91.7235V19.2687H96.3155V18.298H91.7235V14.378H96.7635V13.37H90.6035ZM98.3129 12.9967H106.47V14.7513H103.26V24.57H101.449V14.7513H98.3129V12.9967ZM98.6862 13.37V14.378H101.822V24.1967H102.886V14.378H106.097V13.37H98.6862ZM111.585 12.9967H113.396V24.57H111.585V12.9967ZM111.958 13.37V24.1967H113.022V13.37H111.958ZM114.833 12.9967H122.897V14.7513H119.78V24.57H117.969V14.7513H114.833V12.9967ZM115.206 13.37V14.378H118.342V24.1967H119.406V14.378H122.524V13.37H115.206ZM140.78 12.9967H142.824L147.985 21.25V12.9967H149.796V24.57H148.012L142.609 15.9073V24.57H140.78V12.9967ZM141.153 13.37V24.1967H142.236V14.6033L148.219 24.1967H149.422V13.37H148.358V22.5513L142.617 13.37H141.153ZM130.008 15.4404C130.851 14.6008 131.992 14.1294 133.182 14.1294C134.372 14.1294 135.513 14.6008 136.357 15.4404L136.363 15.4471C137.192 16.3606 137.651 17.55 137.651 18.7833C137.651 20.0167 137.192 21.2059 136.363 22.1194L136.357 22.1264C135.514 22.966 134.372 23.4372 133.182 23.4372C131.992 23.4372 130.851 22.9659 130.008 22.1263L130.14 21.994L130.001 22.1194C129.173 21.2059 128.714 20.0167 128.714 18.7833C128.714 17.55 129.173 16.3607 130.001 15.4472L130.008 15.4404ZM130.275 21.8651C131.047 22.6329 132.093 23.0639 133.182 23.0639C134.272 23.0639 135.317 22.6329 136.09 21.8651C136.854 21.0207 137.277 19.9224 137.277 18.7833C137.277 17.6443 136.854 16.5459 136.09 15.7016C135.317 14.9337 134.272 14.5027 133.182 14.5027C132.093 14.5027 131.047 14.9337 130.275 15.7016C129.51 16.5459 129.087 17.6443 129.087 18.7833C129.087 19.9224 129.51 21.0207 130.275 21.8651Z" fill="#2E2E2E"/>
<path d="M19.5913 61.0371L42.4591 37.3188L19.6105 13.6429C19.0002 14.0115 18.6226 14.865 18.6226 15.9822V58.7205C18.6307 59.8377 18.9947 60.6288 19.5913 61.0371Z" fill="#2E2E2E"/>
<path d="M43.2785 36.6637L50.0901 29.5978L22.351 13.8215C21.8839 13.54 21.3533 13.3913 20.813 13.3905L43.2757 36.6609L43.2785 36.6637Z" fill="#2E2E2E"/>
<path d="M43.278 37.9766L20.7441 61.349C21.3097 61.3588 21.8668 61.2057 22.3533 60.9067L50.1471 45.0878L43.278 37.9766Z" fill="#2E2E2E"/>
<path d="M60.1387 35.3226L50.9079 30.0629L43.9102 37.3216L50.9599 44.6256L60.1359 39.3801C62.0872 38.2658 62.0872 36.4312 60.1387 35.3226Z" fill="#2E2E2E"/>
</g>
<defs>
<clipPath id="clip0_29_7204">
<rect width="252" height="74.6667" fill="white"/>
</clipPath>
</defs>
</svg>
