<svg width="14" height="18" viewBox="0 0 14 18" fill="none" xmlns="http://www.w3.org/2000/svg">
<path d="M13.6666 8.99996C13.6666 8.08079 12.9191 7.33329 11.9999 7.33329H11.1666V4.83329C11.1666 2.53579 9.29742 0.666626 6.99992 0.666626C4.70242 0.666626 2.83325 2.53579 2.83325 4.83329V7.33329H1.99992C1.08075 7.33329 0.333252 8.08079 0.333252 8.99996V15.6666C0.333252 16.5858 1.08075 17.3333 1.99992 17.3333H11.9999C12.9191 17.3333 13.6666 16.5858 13.6666 15.6666V8.99996ZM4.49992 4.83329C4.49992 3.45496 5.62159 2.33329 6.99992 2.33329C8.37825 2.33329 9.49992 3.45496 9.49992 4.83329V7.33329H4.49992V4.83329Z" fill="#81858C"/>
</svg>
