<svg width="157" height="149" viewBox="0 0 157 149" fill="none" xmlns="http://www.w3.org/2000/svg">
<path d="M0 0C30.4723 0 60.9139 0 91.3862 0.0307181C92.062 0.0307181 92.8914 0.337899 93.3829 0.829388C99.9566 7.12659 106.469 13.4545 112.981 19.8131C113.35 20.1818 113.688 20.7347 113.688 21.2262C113.718 27.677 113.718 34.097 113.688 40.5478C113.688 40.64 113.595 40.7014 113.534 40.8243C111.414 39.8413 109.326 38.8276 107.206 37.8446C106.162 37.3532 104.626 37.2303 104.104 36.4316C103.551 35.5408 103.888 34.0663 103.888 32.8376C103.858 30.5338 103.858 28.2299 103.858 25.9568C103.858 25.8646 103.796 25.7725 103.704 25.4653C98.3899 25.4653 93.0143 25.4653 87.485 25.4653C87.485 20.1818 87.485 15.0826 87.485 9.92193C61.559 9.92193 35.7865 9.92193 9.89122 9.92193C9.89122 52.4664 9.89122 94.9802 9.89122 137.617C41.1622 137.617 72.4025 137.617 103.858 137.617C103.858 137.033 103.858 136.511 103.858 135.958C103.858 131.412 103.888 126.866 103.827 122.319C103.827 121.336 104.134 120.937 105.056 120.538C107.544 119.524 109.971 118.326 112.428 117.189C112.797 117.036 113.135 116.851 113.595 116.667C113.595 126.988 113.595 137.187 113.595 147.539C112.95 147.539 112.428 147.539 111.875 147.539C75.0749 147.539 38.2747 147.539 1.50518 147.539C1.0137 147.539 0.491489 147.477 0 147.416C0 98.2978 0 49.1489 0 0Z" fill="#DCDCDC"/>
<path d="M131.35 78.731C131.473 98.3905 115.346 118.849 90.7412 119.187C71.2659 119.494 50.7155 102.66 50.2548 79.3453C49.8247 57.6584 67.4569 38.8282 89.1438 38.0603C112.152 37.2309 131.473 55.5696 131.35 78.731ZM90.7104 108.896C107.974 109.019 121.275 94.6736 121.213 78.3009C121.152 61.3138 106.008 47.9515 90.5569 48.2279C73.4469 48.5044 60.6068 62.0818 60.5453 78.3624C60.4225 95.4723 74.2763 109.173 90.7104 108.896Z" fill="#DCDCDC"/>
<path d="M126.497 108.404C136.665 119.033 146.771 129.538 157 140.197C153.959 143.116 150.979 146.003 147.846 148.983C137.678 138.385 127.541 127.818 117.343 117.19C120.415 114.241 123.425 111.353 126.497 108.404Z" fill="#DCDCDC"/>
<path d="M52.8659 101.707C43.1897 101.707 33.6671 101.738 24.1752 101.676C21.8099 101.676 20.3354 99.9255 20.3354 97.5602C20.3354 95.1642 21.8406 93.5055 24.2059 93.5055C32.2233 93.4747 40.2408 93.4747 48.2582 93.5055C48.6268 93.5055 49.1797 93.7512 49.3333 94.0584C50.5313 96.5466 51.6372 99.0654 52.8659 101.707Z" fill="#DCDCDC"/>
<path d="M35.7865 39.5338C32.4689 39.5338 29.1514 39.5338 25.8338 39.5338C23.0999 39.503 21.5026 37.9978 21.4719 35.479C21.4411 32.8987 23.0692 31.332 25.8953 31.332C32.5304 31.332 39.1962 31.332 45.8313 31.332C48.6573 31.332 50.2854 32.8987 50.2854 35.479C50.2547 38.0593 48.6266 39.5338 45.7698 39.5645C42.4216 39.5338 39.104 39.5338 35.7865 39.5338Z" fill="#DCDCDC"/>
<path d="M35.7251 52.7429C32.4076 52.7429 29.09 52.7429 25.7725 52.7429C23.0693 52.7429 21.4719 51.207 21.4719 48.6574C21.4719 46.1692 23.0078 44.5719 25.6496 44.5719C32.4383 44.5411 39.227 44.5411 46.0464 44.5719C48.7188 44.6026 50.3469 46.2614 50.2855 48.7802C50.224 51.2684 48.6574 52.7736 46.0464 52.7736C42.5752 52.7429 39.1348 52.7429 35.7251 52.7429Z" fill="#DCDCDC"/>
<path d="M48.5653 65.613C47.951 68.4391 47.398 71.0501 46.7837 73.8147C44.0498 73.8147 41.3466 73.8147 38.6434 73.8147C33.9435 73.8147 29.2437 73.8455 24.5438 73.784C21.0112 73.7533 19.1067 70.2514 21.0727 67.3332C21.6256 66.5346 22.8543 65.7052 23.7759 65.6745C32.039 65.5516 40.2407 65.613 48.5653 65.613Z" fill="#DCDCDC"/>
<path d="M46.5378 78.791C46.7836 81.6171 47.0293 84.2281 47.2443 86.962C39.2884 86.962 31.4552 87.0235 23.6221 86.9313C21.6562 86.9006 20.366 85.1189 20.3353 82.9994C20.2739 80.972 21.5948 79.2211 23.4993 78.8832C24.0522 78.791 24.6051 78.791 25.1888 78.791C31.7624 78.791 38.3361 78.791 44.9098 78.791C45.4012 78.791 45.9235 78.791 46.5378 78.791Z" fill="#DCDCDC"/>
<path d="M85.4885 122.903C84.997 122.934 84.5669 123.026 84.1062 123.026C77.3789 123.026 70.6209 123.057 63.8937 123.026C60.3611 122.995 58.518 119.585 60.3918 116.575C61.3748 114.947 64.2009 114.179 65.8289 115.285C71.7575 119.309 78.3004 121.736 85.3656 122.719C85.3656 122.688 85.3963 122.78 85.4885 122.903Z" fill="#DCDCDC"/>
<path d="M104.011 55.6914C107.329 57.4731 109.848 59.9305 112.09 62.6951C113.319 64.2003 113.78 65.7669 113.749 67.7329C113.657 75.2895 113.657 82.8462 113.749 90.4028C113.749 91.908 113.38 93.1367 112.49 94.3347C110.217 97.3758 107.513 99.9561 104.011 101.922C104.011 86.4709 104.011 71.1733 104.011 55.6914Z" fill="#DCDCDC"/>
<path d="M63.8628 78.8221C71.143 78.8221 77.901 78.7914 84.6896 78.8529C87.0242 78.8836 88.4372 80.6038 88.4065 83.0305C88.3758 85.3958 86.9935 86.9931 84.6896 87.0238C78.331 87.0853 71.9416 87.0546 65.2144 87.0546C64.7843 84.3514 64.3543 81.6789 63.8628 78.8221Z" fill="#DCDCDC"/>
<path d="M64.2314 73.7846C65.368 70.9893 66.3203 68.5625 67.3647 66.1665C67.4876 65.8593 68.0712 65.6136 68.4398 65.6136C73.8462 65.5829 79.2833 65.5522 84.6897 65.6136C86.9014 65.6443 88.2837 67.1802 88.3758 69.4841C88.468 71.8186 87.2085 73.3853 85.0583 73.7232C84.8433 73.7539 84.659 73.7846 84.4439 73.7846C77.9317 73.7846 71.4195 73.7846 64.2314 73.7846Z" fill="#DCDCDC"/>
<path d="M68.5627 93.5357C74.2456 93.5357 79.6212 93.4743 85.0276 93.5664C87.055 93.5971 88.3145 95.2559 88.4066 97.4062C88.4988 99.6179 87.3008 101.43 85.2427 101.584C82.6623 101.768 80.0513 101.676 77.4403 101.676C77.1024 101.676 76.7645 101.461 76.488 101.277C73.3855 99.3414 70.8052 96.8225 68.5627 93.5357Z" fill="#DCDCDC"/>
</svg>
