<svg width="15" height="21" viewBox="0 0 15 21" fill="none" xmlns="http://www.w3.org/2000/svg">
<path d="M2.06652 3.12202C3.64792 4.2686 5.22316 5.41006 6.79616 6.5499L6.79646 6.55012C8.60626 7.86155 10.4131 9.17084 12.2233 10.4835C10.4057 11.8003 8.59414 13.1121 6.7825 14.424L6.7793 14.4263C5.20979 15.5629 3.64019 16.6995 2.06652 17.8394V17.8158V17.7752V17.7346V17.6939V17.6533V17.6127V17.5721V17.5315V17.4909V17.4503V17.4097V17.3691V17.3285V17.2879V17.2474V17.2068V17.1662V17.1256V17.085V17.0444V17.0038V16.9632V16.9227V16.8821V16.8415V16.8009V16.7603V16.7198V16.6792V16.6386V16.598V16.5575V16.5169V16.4763V16.4357V16.3952V16.3546V16.314V16.2735V16.2329V16.1923V16.1518V16.1112V16.0707V16.0301V15.9895V15.949V15.9084V15.8679V15.8273V15.7868V15.7462V15.7057V15.6651V15.6246V15.584V15.5435V15.5029V15.4624V15.4218V15.3813V15.3407V15.3002V15.2596V15.2191V15.1786V15.138V15.0975V15.057V15.0164V14.9759V14.9353V14.8948V14.8543V14.8137V14.7732V14.7327V14.6921V14.6516V14.6111V14.5706V14.53V14.4895V14.449V14.4085V14.3679V14.3274V14.2869V14.2464V14.2058V14.1653V14.1248V14.0843V14.0438V14.0032V13.9627V13.9222V13.8817V13.8412V13.8007V13.7601V13.7196V13.6791V13.6386V13.5981V13.5576V13.5171V13.4766V13.436V13.3955V13.355V13.3145V13.274V13.2335V13.193V13.1525V13.112V13.0715V13.031V12.9905V12.95V12.9095V12.8689V12.8284V12.7879V12.7474V12.7069V12.6664V12.6259V12.5854V12.5449V12.5044V12.4639V12.4234V12.3829V12.3424V12.3019V12.2614V12.2209V12.1804V12.14V12.0995V12.059V12.0185V11.978V11.9375V11.897V11.8565V11.816V11.7755V11.735V11.6945V11.654V11.6135V11.573V11.5325V11.492V11.4515V11.411V11.3706V11.3301V11.2896V11.2491V11.2086V11.1681V11.1276V11.0871V11.0466V11.0061V10.9656V10.9251V10.8847V10.8442V10.8037V10.7632V10.7227V10.6822V10.6417V10.6012V10.5607V10.5202V10.4797V10.4393V10.3988V10.3583V10.3178V10.2773V10.2368V10.1963V10.1558V10.1153V10.0748V10.0343V9.99385V9.95336V9.91287V9.87238V9.83189V9.7914V9.75091V9.71041V9.66992V9.62943V9.58894V9.54844V9.50795V9.46746V9.42697V9.38647V9.34598V9.30548V9.26499V9.2245V9.184V9.14351V9.10301V9.06252V9.02202V8.98153V8.94103V8.90053V8.86004V8.81954V8.77905V8.73855V8.69805V8.65755V8.61705V8.57656V8.53606V8.49556V8.45506V8.41456V8.37406V8.33356V8.29305V8.25255V8.21205V8.17155V8.13105V8.09054V8.05004V8.00953V7.96903V7.92853V7.88802V7.84751V7.80701V7.7665V7.72599V7.68549V7.64498V7.60447V7.56396V7.52345V7.48294V7.44243V7.40192V7.3614V7.32089V7.28038V7.23986V7.19935V7.15884V7.11832V7.0778V7.03729V6.99677V6.95625V6.91573V6.87521V6.83469V6.79417V6.75365V6.71313V6.67261V6.63208V6.59156V6.55104V6.51051V6.46998V6.42946V6.38893V6.3484V6.30787V6.26734V6.22681V6.18628V6.14575V6.10522V6.06468V6.02415V5.98361V5.94308V5.90254V5.862V5.82146V5.78092V5.74038V5.69984V5.6593V5.61876V5.57822V5.53767V5.49713V5.45658V5.41603V5.37548V5.33493V5.29438V5.25383V5.21328V5.17273V5.13218V5.09162V5.05107V5.01051V4.96995V4.92939V4.88883V4.84827V4.80771V4.76715V4.72658V4.68602V4.64545V4.60489V4.56432V4.52375V4.48318V4.44261V4.40204V4.36146V4.32089V4.28031V4.23974V4.19916V4.15858V4.118V4.07742V4.03684V3.99625V3.95567V3.91508V3.8745V3.83391V3.79332V3.75273V3.71214V3.67155V3.63095V3.59036V3.54976V3.50916V3.46856V3.42796V3.38736V3.34676V3.30615V3.26555V3.22494V3.18433V3.14372V3.12202Z" fill="#565657" stroke="#565657" stroke-width="3.0891"/>
</svg>
