<svg width="12" height="13" viewBox="0 0 12 13" fill="none" xmlns="http://www.w3.org/2000/svg">
<path fill-rule="evenodd" clip-rule="evenodd" d="M11.8333 6.49996C11.8333 9.72162 9.22166 12.3333 6 12.3333C2.77834 12.3333 0.166668 9.72162 0.166668 6.49996C0.166668 3.2783 2.77834 0.666626 6 0.666626C9.22166 0.666626 11.8333 3.2783 11.8333 6.49996ZM6 4.02079C5.63756 4.02079 5.34375 4.31461 5.34375 4.67704C5.34375 4.91867 5.14788 5.11454 4.90625 5.11454C4.66463 5.11454 4.46875 4.91867 4.46875 4.67704C4.46875 3.83136 5.15431 3.14579 6 3.14579C6.84569 3.14579 7.53125 3.83136 7.53125 4.67704C7.53125 5.0917 7.36586 5.46861 7.09839 5.74394C7.04457 5.79934 6.99323 5.85063 6.94426 5.89957C6.81835 6.02536 6.70805 6.13557 6.61128 6.25991C6.48351 6.42408 6.4375 6.54474 6.4375 6.64579V7.08329C6.4375 7.32492 6.24163 7.52079 6 7.52079C5.75838 7.52079 5.5625 7.32492 5.5625 7.08329V6.64579C5.5625 6.2636 5.74042 5.95421 5.92077 5.7225C6.0542 5.55105 6.22192 5.38366 6.35804 5.24781C6.3991 5.20683 6.43728 5.16873 6.47078 5.13424C6.58601 5.01563 6.65625 4.85498 6.65625 4.67704C6.65625 4.31461 6.36244 4.02079 6 4.02079ZM6 9.41663C6.32217 9.41663 6.58333 9.15546 6.58333 8.83329C6.58333 8.51113 6.32217 8.24996 6 8.24996C5.67783 8.24996 5.41667 8.51113 5.41667 8.83329C5.41667 9.15546 5.67783 9.41663 6 9.41663Z" fill="#898D93"/>
</svg>
