<svg width="16" height="17" viewBox="0 0 16 17" fill="none" xmlns="http://www.w3.org/2000/svg">
<path fill-rule="evenodd" clip-rule="evenodd" d="M16 8.5C16 12.918 12.418 16.5 8 16.5C3.582 16.5 0 12.918 0 8.5C0 4.082 3.582 0.5 8 0.5C12.418 0.5 16 4.082 16 8.5ZM13.1253 7.872C13.2547 8.05667 13.328 8.27467 13.336 8.5C13.3395 8.72044 13.2805 8.93737 13.1658 9.12567C13.0511 9.31397 12.8855 9.46594 12.688 9.564C12.6973 9.68133 12.6973 9.79867 12.688 9.916C12.688 11.708 10.6 13.164 8.024 13.164C5.448 13.164 3.36 11.708 3.36 9.916C3.35099 9.79884 3.35099 9.68116 3.36 9.564C3.20745 9.49259 3.07217 9.38899 2.96346 9.26033C2.85475 9.13166 2.77519 8.98099 2.73025 8.81865C2.68531 8.65632 2.67605 8.48618 2.70311 8.31993C2.73018 8.15368 2.79292 7.99526 2.88702 7.85556C2.98113 7.71586 3.10437 7.5982 3.24827 7.51065C3.39218 7.42311 3.55333 7.36777 3.72065 7.34842C3.88798 7.32908 4.05751 7.3462 4.21759 7.39861C4.37767 7.45101 4.5245 7.53746 4.648 7.652C5.56982 7.02682 6.65431 6.68479 7.768 6.668L8.36 3.892C8.36665 3.85986 8.37961 3.82937 8.39813 3.80227C8.41665 3.77518 8.44037 3.75204 8.4679 3.73418C8.49543 3.71632 8.52624 3.7041 8.55852 3.69823C8.59081 3.69237 8.62395 3.69297 8.656 3.7L10.616 4.092C10.7117 3.92755 10.8629 3.8026 11.0425 3.73958C11.222 3.67656 11.4181 3.6796 11.5956 3.74815C11.7731 3.8167 11.9204 3.94627 12.011 4.1136C12.1015 4.28094 12.1295 4.47508 12.0898 4.66118C12.0502 4.84728 11.9455 5.01315 11.7946 5.12901C11.6436 5.24488 11.4563 5.30315 11.2663 5.29338C11.0763 5.2836 10.896 5.20641 10.7577 5.07567C10.6195 4.94492 10.5324 4.76919 10.512 4.58L8.8 4.22L8.28 6.716C9.38016 6.7396 10.4499 7.08137 11.36 7.7C11.4815 7.58319 11.6268 7.49408 11.786 7.43878C11.9452 7.38348 12.1145 7.36331 12.2823 7.37965C12.45 7.39599 12.6122 7.44846 12.7577 7.53345C12.9033 7.61844 13.0287 7.73394 13.1253 7.872ZM5.47067 8.85533C5.41227 8.94271 5.37166 9.04073 5.35115 9.14379C5.33063 9.24686 5.33062 9.35296 5.35111 9.45604C5.3925 9.6642 5.51488 9.8474 5.69133 9.96533C5.86779 10.0833 6.08387 10.1263 6.29204 10.0849C6.39511 10.0644 6.49314 10.0238 6.58052 9.96543C6.66791 9.90706 6.74294 9.83204 6.80133 9.74467C6.91927 9.56821 6.96227 9.35213 6.92089 9.14397C6.87951 8.9358 6.75712 8.7526 6.58067 8.63467C6.40421 8.51673 6.18813 8.47373 5.97997 8.51511C5.7718 8.55649 5.5886 8.67888 5.47067 8.85533ZM8.008 12.116C8.718 12.1453 9.41667 11.96 9.984 11.532C10.0264 11.4906 10.0507 11.4341 10.0514 11.3748C10.0522 11.3156 10.0294 11.2584 9.988 11.216C9.96751 11.195 9.94309 11.1782 9.91612 11.1666C9.88915 11.1551 9.86017 11.1489 9.83083 11.1486C9.77157 11.1478 9.71444 11.1706 9.672 11.212C9.18649 11.5603 8.59664 11.7324 8 11.7C7.40409 11.7266 6.81698 11.5488 6.336 11.196C6.29455 11.162 6.24193 11.1446 6.18837 11.1472C6.13481 11.1499 6.08415 11.1723 6.04623 11.2102C6.00832 11.2481 5.98586 11.2988 5.98323 11.3524C5.9806 11.4059 5.99798 11.4586 6.032 11.5C6.59958 11.9277 7.29791 12.1454 8.008 12.116ZM9.39533 9.99733C9.52733 10.0853 9.674 10.164 9.832 10.164C9.9405 10.1653 10.0481 10.1444 10.1483 10.1028C10.2485 10.0611 10.3392 9.99945 10.4148 9.9216C10.4904 9.84376 10.5493 9.75134 10.588 9.64997C10.6268 9.54861 10.6444 9.44042 10.64 9.332C10.6399 9.19381 10.6041 9.058 10.536 8.93778C10.4678 8.81756 10.3697 8.71705 10.2511 8.64603C10.1326 8.57502 9.99769 8.53591 9.85954 8.53254C9.7214 8.52916 9.58473 8.56163 9.46286 8.62677C9.34099 8.69192 9.23808 8.78752 9.16414 8.90426C9.09021 9.021 9.04777 9.15491 9.04097 9.29293C9.03417 9.43095 9.06324 9.56838 9.12534 9.69182C9.18744 9.81527 9.28046 9.92052 9.39533 9.99733Z" fill="#81858C"/>
</svg>
