<svg width="20" height="22" viewBox="0 0 20 22" fill="none" xmlns="http://www.w3.org/2000/svg">
<path d="M2.32574 22C2.02463 21.8671 1.68921 21.7814 1.4224 21.5843C0.801114 21.1299 0.503812 20.4442 0.5 19.6084C0.5 17.8855 0.5 16.1582 0.5 14.4353C0.5 11.7522 0.5 9.07352 0.5 6.39479C0.5 5.23329 1.16702 4.29895 2.16184 4.05893C2.34099 4.01607 2.52775 4.00321 2.71071 4.00321C6.57182 3.99893 10.4291 3.99893 14.2902 4.00321C15.3994 4.00321 16.2418 4.73612 16.4514 5.88904C16.4895 6.10334 16.4971 6.32621 16.4971 6.54908C16.501 10.8393 16.501 15.1339 16.4971 19.4241C16.4971 20.8214 15.9216 21.6486 14.7133 21.9743C14.7019 21.9786 14.6943 21.9914 14.6828 22C10.5702 22 6.44985 22 2.32574 22Z" fill="#939AA4"/>
<path d="M19.5 16.9295C19.4708 17.0597 19.4452 17.1942 19.4123 17.32C19.1676 18.2744 18.4334 18.9511 17.5897 18.9989C17.1915 19.0206 16.8774 18.7299 16.8409 18.3004C16.8007 17.8406 17.06 17.4805 17.4728 17.4198C17.9695 17.3417 18.1631 17.0857 18.1631 16.4914C18.1631 11.8322 18.1631 7.16862 18.1631 2.5094C18.1631 1.87603 17.9147 1.58537 17.3815 1.58537C13.4621 1.58537 9.54648 1.58537 5.62716 1.58537C5.11579 1.58537 4.89663 1.81095 4.83088 2.40962C4.77609 2.8955 4.48753 3.19484 4.104 3.16013C3.73508 3.12542 3.47939 2.748 3.50131 2.26646C3.55245 0.986697 4.42543 0.00626627 5.52854 0.00192808C7.40601 -0.00241011 9.28348 0.00192808 11.161 0.00192808C13.232 0.00192808 15.3031 0.00192808 17.3741 0.00192808C18.4955 0.00192808 19.237 0.717729 19.4744 2.02352C19.4781 2.04522 19.4927 2.06257 19.5 2.07992C19.5 7.02546 19.5 11.9753 19.5 16.9295Z" fill="#939AA4"/>
</svg>
