<svg width="15" height="15" viewBox="0 0 15 15" fill="none" xmlns="http://www.w3.org/2000/svg">
<g id="Group">
<g id="EvSQNx.tif_1_">
<g id="Group_2">
<path id="Vector" d="M15 6.56506C12.8253 6.56506 11.1349 5.893 8.93972 5.893C9.94341 4.88931 10.4482 4.57236 11.4431 3.58041C11.0381 3.16954 10.6037 2.83204 10.1224 2.56205C9.2508 2.07488 8.31461 1.84303 7.31679 1.88412C5.98441 1.93988 4.80757 2.4065 3.80095 3.28693C3.0203 3.97073 2.46563 4.81007 2.14868 5.79615C1.88162 6.62376 1.80825 7.47484 1.94618 8.33766C2.13694 9.54678 2.66226 10.5916 3.52215 11.4573C4.40845 12.3495 5.48257 12.8865 6.73278 13.0685C9.0395 13.4031 11.3022 12.2233 12.4057 10.166C12.526 9.94297 12.7285 9.61134 12.8371 9.38243C13.4563 9.37656 14.0756 9.3795 14.7212 9.3795C14.6508 9.5996 14.595 9.80797 14.5216 10.0105C14.0315 11.3458 13.2333 12.4669 12.1239 13.359C11.1848 14.1162 10.1254 14.621 8.93972 14.8528C8.6257 14.9145 8.30287 14.9379 7.98299 14.979C7.93016 14.9849 7.87733 14.9937 7.82451 15.0025C7.56918 15.0025 7.31679 15.0025 7.06147 15.0025C6.95582 14.9908 6.85017 14.979 6.74452 14.9673C5.29474 14.8059 3.97117 14.304 2.85009 13.3649C0.502278 11.3986 -0.43978 8.88939 0.191193 5.893C0.983579 2.12183 4.56399 -0.393258 8.36744 0.0586952C10.0344 0.255324 11.4636 0.950863 12.6463 2.14531C12.6786 2.17759 12.7138 2.20988 12.7549 2.24803C13.5091 1.49086 14.2546 0.745429 15 0C15 2.18933 15 4.37573 15 6.56506Z" fill="#262626"/>
</g>
</g>
</g>
</svg>
