<svg width="17" height="16" viewBox="0 0 17 16" fill="none" xmlns="http://www.w3.org/2000/svg">
<path d="M0.607422 15.583C0.607422 10.4724 0.607422 5.38788 0.607422 0.277344C1.90724 0.277344 3.14614 0.277344 4.46627 0.277344C4.46627 5.38788 4.46627 10.4594 4.46627 15.583C3.20707 15.583 1.96817 15.583 0.607422 15.583Z" fill="#565657"/>
<path d="M6.396 15.5851C6.396 11.3764 6.396 7.18915 6.396 2.98047C7.69582 2.98047 8.93471 2.98047 10.2548 2.98047C10.2548 7.18915 10.2548 11.3657 10.2548 15.5851C8.99564 15.5851 7.75675 15.5851 6.396 15.5851Z" fill="#565657"/>
<path d="M12.1829 15.5814C12.1829 12.5752 12.1829 9.58432 12.1829 6.57812C13.4827 6.57812 14.7216 6.57812 16.0417 6.57812C16.0417 9.58432 16.0417 12.5676 16.0417 15.5814C14.7825 15.5814 13.5436 15.5814 12.1829 15.5814Z" fill="#565657"/>
</svg>
