<svg width="16" height="16" viewBox="0 0 16 16" fill="none" xmlns="http://www.w3.org/2000/svg">
<path d="M1.62146 1.8219H1.65035H1.68056H1.71078H1.74099H1.7712H1.80142H1.83163H1.86183H1.89204H1.92225H1.95245H1.98265H2.01285H2.04305H2.07325H2.10345H2.13365H2.16384H2.19403H2.22423H2.25442H2.28461H2.31479H2.34498H2.37517H2.40535H2.43553H2.46571H2.4959H2.52607H2.55625H2.58643H2.6166H2.64678H2.67695H2.70712H2.73729H2.76746H2.79763H2.8278H2.85796H2.88813H2.91829H2.94845H2.97862H3.00878H3.03893H3.06909H3.09925H3.1294H3.15956H3.18971H3.21986H3.25002H3.28017H3.31031H3.34046H3.37061H3.40076H3.4309H3.46104H3.49119H3.52133H3.55147H3.58161H3.61175H3.64189H3.67202H3.70216H3.73229H3.76243H3.79256H3.82269H3.85282H3.88295H3.91308H3.94321H3.97334H4.00346H4.03359H4.06371H4.09384H4.12396H4.15408H4.1842H4.21432H4.24444H4.27456H4.30468H4.3348H4.36491H4.39503H4.42514H4.45526H4.48537H4.51548H4.54559H4.5757H4.60581H4.63592H4.66603H4.69614H4.72625H4.75635H4.78646H4.81656H4.84667H4.87677H4.90687H4.93698H4.96708H4.99718H5.02728H5.05738H5.08748H5.11757H5.14767H5.17777H5.20786H5.23796H5.26805H5.29815H5.32824H5.35834H5.38843H5.41852H5.44861H5.4787H5.50879H5.53888H5.56897H5.59906H5.62915H5.65924H5.68932H5.71941H5.7495H5.77958H5.80967H5.83975H5.86984H5.89992H5.93H5.96009H5.99017H6.02025H6.05033H6.08041H6.1105H6.14058H6.17066H6.20074H6.23082H6.26089H6.29097H6.32105H6.35113H6.38121H6.41128H6.44136H6.47144H6.50151H6.53159H6.56167H6.59174H6.62182H6.65189H6.68197H6.71204H6.74211H6.77219H6.80226H6.83233H6.86241H6.89248H6.92255H6.95263H6.9827H7.01277H7.04284H7.07291H7.10298H7.13306H7.16313H7.1932H7.22327H7.25334H7.28341H7.31348H7.34355H7.37362H7.40369H7.43376H7.46383H7.4939H7.52397H7.55404H7.58411H7.61418H7.64425H7.67432H7.70439H7.73446H7.76453H7.7946H7.82467H7.85474H7.88481H7.91488H7.94495H7.97502H8.00509H8.03516H8.06523H8.09529H8.12537H8.15543H8.1855H8.21558H8.24565H8.27572H8.30579H8.33586H8.36593H8.396H8.42607H8.45614H8.48621H8.51628H8.54636H8.57643H8.6065H8.63657H8.66664H8.69672H8.72679H8.75686H8.78694H8.81701H8.84708H8.87716H8.90723H8.93731H8.96738H8.99746H9.02753H9.05761H9.08768H9.11776H9.14784H9.17791H9.20799H9.23807H9.26815H9.29822H9.3283H9.35838H9.38846H9.41854H9.44862H9.4787H9.50878H9.53886H9.56894H9.59903H9.62911H9.65919H9.68928H9.71936H9.74944H9.77953H9.80961H9.8397H9.86979H9.89987H9.92996H9.96005H9.99014H10.0202H10.0503H10.0804H10.1105H10.1406H10.1707H10.2008H10.2309H10.261H10.291H10.3211H10.3512H10.3813H10.4114H10.4415H10.4716H10.5017H10.5318H10.5619H10.592H10.6221H10.6522H10.6823H10.7124H10.7425H10.7726H10.8027H10.8328H10.8629H10.8931H10.9232H10.9533H10.9834H11.0135H11.0436H11.0737H11.1038H11.1339H11.1641H11.1942H11.2243H11.2544H11.2845H11.3146H11.3448H11.3749H11.405H11.4351H11.4652H11.4954H11.5255H11.5556H11.5857H11.6159H11.646H11.6761H11.7062H11.7364H11.7665H11.7966H11.8268H11.8569H11.887H11.9172H11.9473H11.9774H12.0076H12.0377H12.0679H12.098H12.1282H12.1583H12.1884H12.2186H12.2487H12.2789H12.309H12.3392H12.3693H12.3995H12.4296H12.4598H12.4899H12.5201H12.5503H12.5804H12.6106H12.6407H12.6709H12.7011H12.7312H12.7614H12.7916H12.8217H12.8519H12.8821H12.9122H12.9424H12.9726H13.0028H13.0329H13.0631H13.0933H13.1235H13.1537H13.1838H13.214H13.2442H13.2744H13.3046H13.3348H13.365H13.3952H13.4254H13.4556H13.4857H13.5159H13.5461H13.5763H13.6065H13.6367H13.667H13.6972H13.7274H13.7576H13.7878H13.818H13.8482H13.8784H13.9086H13.9389H13.9677V1.833V1.86289V1.89278V1.92267V1.95255V1.98244V2.01233V2.04221V2.07209V2.10198V2.13186V2.16174V2.19162V2.2215V2.25138V2.28126V2.31114V2.34101V2.37089V2.40077V2.43064V2.46051V2.49039V2.52026V2.55013V2.58V2.60987V2.63974V2.66961V2.69948V2.72934V2.75921V2.78907V2.81894V2.8488V2.87867V2.90853V2.93839V2.96825V2.99811V3.02797V3.05783V3.08769V3.11755V3.14741V3.17726V3.20712V3.23697V3.26683V3.29668V3.32654V3.35639V3.38624V3.4161V3.44595V3.4758V3.50565V3.5355V3.56535V3.59519V3.62504V3.65489V3.68474V3.71458V3.74443V3.77427V3.80412V3.83396V3.86381V3.89365V3.92349V3.95334V3.98318V4.01302V4.04286V4.0727V4.10254V4.13238V4.16222V4.19206V4.2219V4.25173V4.28157V4.31141V4.34125V4.37108V4.40092V4.43075V4.46059V4.49042V4.52026V4.55009V4.57992V4.60976V4.63959V4.66942V4.69925V4.72909V4.75892V4.78875V4.81858V4.84841V4.87824V4.90807V4.9379V4.96773V4.99756V5.02739V5.05722V5.08704V5.11687V5.1467V5.17653V5.20636V5.23618V5.26601V5.29584V5.32566V5.35549V5.38531V5.41514V5.44497V5.47479V5.50462V5.53444V5.56427V5.59409V5.62392V5.65374V5.68357V5.71339V5.74321V5.77304V5.80286V5.83268V5.86251V5.89233V5.92216V5.95198V5.9818V6.01162V6.04145V6.07127V6.10109V6.13092V6.16074V6.19056V6.22039V6.25021V6.28003V6.30985V6.33968V6.3695V6.39932V6.42914V6.45897V6.48879V6.51861V6.54843V6.57826V6.60808V6.6379V6.66773V6.69755V6.72737V6.75719V6.78702V6.81684V6.84666V6.87649V6.90631V6.93613V6.96596V6.99578V7.0256V7.05543V7.08525V7.11508V7.1449V7.17473V7.20455V7.23438V7.2642V7.29403V7.32385V7.35368V7.3835V7.41333V7.44315V7.47298V7.50281V7.53263V7.56246V7.59229V7.62212V7.65194V7.68177V7.7116V7.74143V7.77126V7.80109V7.83091V7.86074V7.89057V7.9204V7.95023V7.98006V8.0099V8.03973V8.06956V8.09939V8.12922V8.15906V8.18889V8.21872V8.24856V8.27839V8.30822V8.33806V8.36789V8.39773V8.42757V8.4574V8.48724V8.51708V8.54691V8.57675V8.60659V8.63643V8.66627V8.69611V8.72595V8.75579V8.78563V8.81547V8.84531V8.87516V8.905V8.93484V8.96469V8.99453V9.02438V9.05422V9.08407V9.11391V9.14376V9.17361V9.20346V9.23331V9.26315V9.293V9.32286V9.35271V9.38256V9.41241V9.44226V9.47212V9.50197V9.53183V9.56168V9.59154V9.62139V9.65125V9.68111V9.71097V9.74082V9.77068V9.80054V9.83041V9.86027V9.89013V9.91999V9.94986V9.97972V10.0096V10.0395V10.0693V10.0992V10.1291V10.1589V10.1888V10.2187V10.2485V10.2784V10.3083V10.3381V10.368V10.3979V10.4278V10.4576V10.4875V10.5174V10.5473V10.5772V10.607V10.6369V10.6668V10.6967V10.7266V10.7565V10.7863V10.8162V10.8461V10.876V10.9059V10.9358V10.9657V10.9956V11.0255V11.0553V11.0852V11.1151V11.145V11.1749V11.2048V11.2347V11.2646V11.2945V11.3244V11.3543V11.3842V11.4141V11.444V11.474V11.5039V11.5338V11.5637V11.5936V11.6235V11.6534V11.6833V11.7132V11.7432V11.7731V11.803V11.8329V11.8628V11.8928V11.9227V11.9526V11.9825V12.0124V12.0424V12.0723V12.1022V12.1322V12.1621V12.192V12.222V12.2519V12.2818V12.3118V12.3417V12.3716V12.4016V12.4315V12.4615V12.4914V12.5213V12.5513V12.5812V12.6112V12.6411V12.6711V12.701V12.731V12.7609V12.7909V12.8209V12.8508V12.8808V12.9107V12.9407V12.9707V13.0006V13.0306V13.0606V13.0905V13.1205V13.1505V13.1804V13.2104V13.2404V13.2704V13.3003V13.3303V13.3603V13.3903V13.4203V13.4503V13.4802V13.5102V13.5402V13.5702V13.6002V13.6302V13.6602V13.6902V13.7202V13.7502V13.7802V13.8102V13.8402V13.8702V13.9002V13.9302V13.9602V13.9902V14.0202V14.0385H13.9526H13.9226H13.8926H13.8626H13.8326H13.8026H13.7726H13.7427H13.7127H13.6827H13.6527H13.6227H13.5927H13.5627H13.5327H13.5027H13.4727H13.4427H13.4127H13.3827H13.3527H13.3227H13.2927H13.2627H13.2327H13.2026H13.1726H13.1426H13.1126H13.0826H13.0526H13.0226H12.9926H12.9626H12.9326H12.9026H12.8726H12.8426H12.8126H12.7826H12.7526H12.7226H12.6926H12.6626H12.6326H12.6025H12.5725H12.5425H12.5125H12.4825H12.4525H12.4225H12.3925H12.3625H12.3325H12.3024H12.2724H12.2424H12.2124H12.1824H12.1524H12.1224H12.0923H12.0623H12.0323H12.0023H11.9723H11.9423H11.9122H11.8822H11.8522H11.8222H11.7922H11.7622H11.7321H11.7021H11.6721H11.6421H11.6121H11.582H11.552H11.522H11.492H11.4619H11.4319H11.4019H11.3719H11.3418H11.3118H11.2818H11.2518H11.2217H11.1917H11.1617H11.1316H11.1016H11.0716H11.0415H11.0115H10.9815H10.9515H10.9214H10.8914H10.8613H10.8313H10.8013H10.7712H10.7412H10.7112H10.6811H10.6511H10.6211H10.591H10.561H10.5309H10.5009H10.4709H10.4408H10.4108H10.3807H10.3507H10.3206H10.2906H10.2605H10.2305H10.2004H10.1704H10.1404H10.1103H10.0803H10.0502H10.0202H9.9901H9.96005H9.92999H9.89994H9.86989H9.83983H9.80978H9.77972H9.74966H9.7196H9.68955H9.65949H9.62943H9.59937H9.56931H9.53924H9.50918H9.47912H9.44905H9.41899H9.38892H9.35886H9.32879H9.29872H9.26865H9.23859H9.20852H9.17844H9.14837H9.1183H9.08823H9.05815H9.02808H8.998H8.96793H8.93785H8.90777H8.8777H8.84762H8.81754H8.78746H8.75737H8.72729H8.69721H8.66713H8.63704H8.60696H8.57687H8.54678H8.51669H8.48661H8.45652H8.42642H8.39633H8.36624H8.33615H8.30606H8.27596H8.24586H8.21577H8.18567H8.15557H8.12547H8.09537H8.06527H8.03517H8.00507H7.97497H7.94486H7.91476H7.88465H7.85454H7.82443H7.79433H7.76422H7.73411H7.70399H7.67388H7.64377H7.61365H7.58354H7.55342H7.5233H7.49319H7.46307H7.43295H7.40283H7.3727H7.34258H7.31246H7.28233H7.25221H7.22208H7.19195H7.16182H7.13169H7.10156H7.07143H7.0413H7.01116H6.98103H6.95089H6.92076H6.89062H6.86048H6.83034H6.8002H6.77006H6.73991H6.70977H6.67963H6.64948H6.61933H6.58918H6.55904H6.52888H6.49873H6.46858H6.43843H6.40827H6.37812H6.34796H6.3178H6.28764H6.25748H6.22732H6.19716H6.167H6.13683H6.10667H6.0765H6.04633H6.01616H5.98599H5.95582H5.92565H5.89548H5.8653H5.83513H5.80495H5.77477H5.74459H5.71441H5.68423H5.65405H5.62387H5.59368H5.56349H5.53331H5.50312H5.47293H5.44274H5.41255H5.38235H5.35216H5.32196H5.29177H5.26157H5.23137H5.20117H5.17097H5.14076H5.11056H5.08035H5.05015H5.01994H4.98973H4.95952H4.92931H4.8991H4.86888H4.83867H4.80845H4.77823H4.74801H4.71779H4.68757H4.65735H4.62712H4.5969H4.56667H4.53644H4.50621H4.47598H4.44575H4.41552H4.38528H4.35505H4.32481H4.29457H4.26433H4.23409H4.20385H4.1736H4.14336H4.11311H4.08286H4.05261H4.02236H3.99211H3.96186H3.9316H3.90135H3.87109H3.84083H3.81057H3.78031H3.75005H3.71978H3.68952H3.65925H3.62898H3.59871H3.56844H3.53817H3.50789H3.47762H3.44734H3.41706H3.38678H3.3565H3.32622H3.29593H3.26565H3.23536H3.20507H3.17478H3.14449H3.1142H3.0839H3.05361H3.02331H2.99301H2.96271H2.93241H2.9021H2.8718H2.84149H2.81118H2.78088H2.75056H2.72025H2.68994H2.65962H2.62931H2.59899H2.56867H2.53835H2.50802H2.4777H2.44737H2.41705H2.38672H2.35639H2.32605H2.29572H2.26538H2.23505H2.20471H2.17437H2.14403H2.11368H2.08334H2.05299H2.02264H1.9923H1.96194H1.93159H1.90124H1.87088H1.84052H1.81016H1.7798H1.74944H1.71908H1.68871H1.65834H1.62797H1.62146V14.012V13.9823V13.9527V13.9231V13.8934V13.8638V13.8341V13.8045V13.7748V13.7452V13.7155V13.6859V13.6562V13.6265V13.5969V13.5672V13.5376V13.5079V13.4783V13.4486V13.419V13.3893V13.3597V13.33V13.3004V13.2707V13.241V13.2114V13.1817V13.1521V13.1224V13.0927V13.0631V13.0334V13.0038V12.9741V12.9444V12.9148V12.8851V12.8555V12.8258V12.7961V12.7665V12.7368V12.7071V12.6775V12.6478V12.6181V12.5885V12.5588V12.5291V12.4994V12.4698V12.4401V12.4104V12.3808V12.3511V12.3214V12.2917V12.2621V12.2324V12.2027V12.173V12.1433V12.1137V12.084V12.0543V12.0246V11.9949V11.9653V11.9356V11.9059V11.8762V11.8465V11.8168V11.7872V11.7575V11.7278V11.6981V11.6684V11.6387V11.609V11.5793V11.5496V11.5199V11.4902V11.4606V11.4309V11.4012V11.3715V11.3418V11.3121V11.2824V11.2527V11.223V11.1933V11.1636V11.1339V11.1041V11.0744V11.0447V11.015V10.9853V10.9556V10.9259V10.8962V10.8665V10.8368V10.807V10.7773V10.7476V10.7179V10.6882V10.6585V10.6287V10.599V10.5693V10.5396V10.5098V10.4801V10.4504V10.4207V10.3909V10.3612V10.3315V10.3018V10.272V10.2423V10.2126V10.1828V10.1531V10.1233V10.0936V10.0639V10.0341V10.0044V9.97464V9.9449V9.91515V9.88541V9.85566V9.82591V9.79616V9.76641V9.73666V9.70691V9.67715V9.6474V9.61764V9.58788V9.55812V9.52836V9.4986V9.46884V9.43908V9.40931V9.37955V9.34978V9.32001V9.29024V9.26047V9.2307V9.20092V9.17115V9.14137V9.1116V9.08182V9.05204V9.02226V8.99248V8.96269V8.93291V8.90312V8.87333V8.84354V8.81376V8.78396V8.75417V8.72438V8.69458V8.66478V8.63499V8.60519V8.57539V8.54558V8.51578V8.48598V8.45617V8.42636V8.39655V8.36674V8.33693V8.30712V8.2773V8.24748V8.21767V8.18785V8.15803V8.1282V8.09838V8.06856V8.03873V8.0089V7.97907V7.94924V7.91941V7.88957V7.85974V7.8299V7.80006V7.77022V7.74038V7.71054V7.68069V7.65085V7.621V7.59115V7.5613V7.53145V7.50159V7.47174V7.44188V7.41202V7.38216V7.3523V7.32243V7.29257V7.2627V7.23283V7.20296V7.17309V7.14322V7.11334V7.08347V7.05359V7.02371V6.99383V6.96394V6.93406V6.90417V6.87428V6.84439V6.8145V6.78461V6.75471V6.72481V6.69491V6.66501V6.63511V6.60521V6.5753V6.54539V6.51548V6.48557V6.45566V6.42575V6.39583V6.36591V6.33599V6.30607V6.27614V6.24622V6.21629V6.18636V6.15643V6.1265V6.09656V6.06663V6.03669V6.00675V5.9768V5.94686V5.91691V5.88697V5.85702V5.82706V5.79711V5.76716V5.7372V5.70724V5.67728V5.64731V5.61735V5.58738V5.55741V5.52744V5.49747V5.46749V5.43751V5.40754V5.37755V5.34757V5.31759V5.2876V5.25761V5.22762V5.19763V5.16763V5.13763V5.10763V5.07763V5.04763V5.01762V4.98762V4.95761V4.9276V4.89758V4.86757V4.83755V4.80753V4.7775V4.74748V4.71745V4.68743V4.65739V4.62736V4.59733V4.56729V4.53725V4.50721V4.47717V4.44712V4.41707V4.38702V4.35697V4.32691V4.29686V4.2668V4.23674V4.20667V4.17661V4.14654V4.11647V4.0864V4.05632V4.02625V3.99617V3.96609V3.936V3.90592V3.87583V3.84574V3.81565V3.78555V3.75545V3.72535V3.69525V3.66515V3.63504V3.60493V3.57482V3.54471V3.51459V3.48447V3.45435V3.42423V3.3941V3.36397V3.33384V3.30371V3.27358V3.24344V3.2133V3.18316V3.15301V3.12286V3.09272V3.06256V3.03241V3.00225V2.97209V2.94193V2.91177V2.8816V2.85143V2.82126V2.79108V2.76091V2.73073V2.70055V2.67036V2.64017V2.60998V2.57979V2.5496V2.5194V2.4892V2.459V2.4288V2.39859V2.36838V2.33817V2.30795V2.27773V2.24751V2.21729V2.18706V2.15684V2.12661V2.09637V2.06614V2.0359V2.00566V1.97541V1.94517V1.91492V1.88467V1.85441V1.82415V1.8219Z" fill="#565657" stroke="#565657" stroke-width="3.0891"/>
</svg>
