<svg width="16" height="14" viewBox="0 0 16 14" fill="none" xmlns="http://www.w3.org/2000/svg">
<path d="M15.762 2.29122C15.2053 2.53789 14.6073 2.70456 13.9786 2.77989C14.6273 2.39175 15.1126 1.78087 15.344 1.06122C14.7345 1.42321 14.0675 1.67802 13.372 1.81456C12.9042 1.31513 12.2847 0.984106 11.6095 0.872871C10.9344 0.761636 10.2414 0.876416 9.63813 1.19939C9.03489 1.52236 8.55515 2.03546 8.2734 2.65902C7.99166 3.28259 7.92366 3.98172 8.07997 4.64789C6.84509 4.58589 5.63705 4.26492 4.53425 3.70583C3.43145 3.14673 2.45853 2.362 1.67863 1.40256C1.41197 1.86256 1.25863 2.39589 1.25863 2.96389C1.25834 3.47522 1.38426 3.97872 1.62522 4.42971C1.86618 4.8807 2.21474 5.26525 2.63997 5.54922C2.14682 5.53353 1.66455 5.40028 1.2333 5.16055V5.20055C1.23325 5.91772 1.48132 6.61281 1.93542 7.16789C2.38952 7.72296 3.02168 8.10384 3.72463 8.24589C3.26716 8.3697 2.78753 8.38794 2.32197 8.29922C2.5203 8.9163 2.90663 9.45591 3.42688 9.84251C3.94713 10.2291 4.57525 10.4433 5.2233 10.4552C4.12319 11.3188 2.76456 11.7873 1.36597 11.7852C1.11822 11.7853 0.870685 11.7708 0.624634 11.7419C2.04428 12.6547 3.69686 13.1391 5.38463 13.1372C11.098 13.1372 14.2213 8.40522 14.2213 4.30122C14.2213 4.16789 14.218 4.03322 14.212 3.89989C14.8195 3.46054 15.3439 2.91649 15.7606 2.29322L15.762 2.29122Z" fill="#81858C"/>
</svg>
