<svg width="35" height="35" viewBox="0 0 35 35" fill="none" xmlns="http://www.w3.org/2000/svg">
<g id="#2">
<circle id="Ellipse 472" cx="17.5" cy="17.5" r="17.5" fill="#F1F1F1"/>
<path id="i" d="M17.0547 24C16.5024 24 16.0547 23.5523 16.0547 23V14.6484C16.0547 14.0962 16.5024 13.6484 17.0547 13.6484H17.4863C18.0386 13.6484 18.4863 14.0962 18.4863 14.6484V23C18.4863 23.5523 18.0386 24 17.4863 24H17.0547ZM17.2656 12.291C16.5137 12.291 15.918 11.7051 15.918 10.9727C15.918 10.2305 16.5137 9.64453 17.2656 9.64453C18.0273 9.64453 18.623 10.2305 18.623 10.9727C18.623 11.7051 18.0273 12.291 17.2656 12.291Z" fill="#81858C"/>
</g>
</svg>
