<svg width="17" height="18" viewBox="0 0 17 18" fill="none" xmlns="http://www.w3.org/2000/svg">
<g clip-path="url(#clip0_56_3048)">
<path d="M16.0884 3.38788C15.8891 3.14877 15.6397 2.95646 15.3578 2.82462C15.0758 2.69277 14.7683 2.62462 14.4571 2.625H3.00475L2.975 2.37637C2.91412 1.85959 2.66573 1.3831 2.27693 1.03726C1.88813 0.691408 1.38594 0.500242 0.865583 0.5L0.708333 0.5C0.520472 0.5 0.340304 0.574628 0.207466 0.707466C0.0746278 0.840304 0 1.02047 0 1.20833C0 1.39619 0.0746278 1.57636 0.207466 1.7092C0.340304 1.84204 0.520472 1.91667 0.708333 1.91667H0.865583C1.03908 1.91669 1.20653 1.98039 1.33618 2.09567C1.46583 2.21096 1.54866 2.36982 1.56896 2.54212L2.54363 10.8296C2.64481 11.6915 3.05892 12.4863 3.70735 13.063C4.35578 13.6398 5.1934 13.9584 6.06121 13.9583H13.4583C13.6462 13.9583 13.8264 13.8837 13.9592 13.7509C14.092 13.618 14.1667 13.4379 14.1667 13.25C14.1667 13.0621 14.092 12.882 13.9592 12.7491C13.8264 12.6163 13.6462 12.5417 13.4583 12.5417H6.06121C5.62279 12.5404 5.19548 12.4036 4.83787 12.15C4.48026 11.8964 4.20985 11.5383 4.06371 11.125H12.507C13.3374 11.1251 14.1414 10.8333 14.7785 10.3008C15.4157 9.76829 15.8454 9.02883 15.9928 8.21162L16.5488 5.12754C16.6043 4.82155 16.5918 4.50709 16.5123 4.20645C16.4327 3.90581 16.288 3.62635 16.0884 3.38788ZM15.1583 4.87608L14.6016 7.96017C14.5131 8.45104 14.2548 8.89516 13.8719 9.21476C13.489 9.53437 13.0058 9.70909 12.507 9.70833H3.83846L3.17192 4.04167H14.4571C14.5611 4.04105 14.6641 4.06336 14.7585 4.10701C14.853 4.15067 14.9366 4.2146 15.0036 4.29426C15.0705 4.37392 15.1191 4.46735 15.1458 4.56791C15.1726 4.66847 15.1769 4.77369 15.1583 4.87608Z" fill="#252420"/>
<path d="M4.95866 17.5003C5.74106 17.5003 6.37532 16.8661 6.37532 16.0837C6.37532 15.3013 5.74106 14.667 4.95866 14.667C4.17625 14.667 3.54199 15.3013 3.54199 16.0837C3.54199 16.8661 4.17625 17.5003 4.95866 17.5003Z" fill="#252420"/>
<path d="M12.0417 17.5003C12.8241 17.5003 13.4583 16.8661 13.4583 16.0837C13.4583 15.3013 12.8241 14.667 12.0417 14.667C11.2593 14.667 10.625 15.3013 10.625 16.0837C10.625 16.8661 11.2593 17.5003 12.0417 17.5003Z" fill="#252420"/>
</g>
<defs>
<clipPath id="clip0_56_3048">
<rect width="17" height="17" fill="white" transform="translate(0 0.5)"/>
</clipPath>
</defs>
</svg>
