<svg width="17" height="18" viewBox="0 0 17 18" fill="none" xmlns="http://www.w3.org/2000/svg">
<g clip-path="url(#clip0_56_3060)">
<path d="M15.9764 10.1776L14.6306 5.33543C14.2361 3.91688 13.3787 2.67089 12.1948 1.79552C11.0109 0.920146 9.56838 0.465632 8.0965 0.504223C6.62463 0.542813 5.20788 1.07229 4.07147 2.0085C2.93506 2.9447 2.1442 4.23391 1.82459 5.67118L0.782634 10.3568C0.667541 10.8746 0.670202 11.4115 0.790421 11.9281C0.91064 12.4447 1.14535 12.9277 1.47721 13.3414C1.80908 13.7551 2.22963 14.089 2.70782 14.3185C3.18601 14.5479 3.70963 14.667 4.24001 14.667H5.02909C5.19167 15.4676 5.62603 16.1874 6.25858 16.7045C6.89113 17.2215 7.68297 17.5039 8.49993 17.5039C9.31689 17.5039 10.1087 17.2215 10.7413 16.7045C11.3738 16.1874 11.8082 15.4676 11.9708 14.667H12.5643C13.1103 14.6671 13.6489 14.5409 14.1381 14.2983C14.6272 14.0557 15.0537 13.7033 15.3841 13.2687C15.7145 12.834 15.94 12.3288 16.0428 11.7926C16.1457 11.2564 16.1232 10.7037 15.9771 10.1776H15.9764ZM8.49993 16.0837C8.06199 16.0819 7.63531 15.9448 7.27826 15.6912C6.92122 15.4376 6.65124 15.0799 6.50526 14.667H10.4946C10.3486 15.0799 10.0786 15.4376 9.72159 15.6912C9.36454 15.9448 8.93786 16.0819 8.49993 16.0837ZM14.2558 12.411C14.0585 12.6728 13.8027 12.885 13.509 13.0307C13.2152 13.1765 12.8915 13.2516 12.5636 13.2504H4.24001C3.92182 13.2503 3.60769 13.1788 3.32083 13.0411C3.03397 12.9034 2.7817 12.703 2.58262 12.4548C2.38355 12.2066 2.24276 11.9168 2.17066 11.6069C2.09855 11.297 2.09696 10.9748 2.16601 10.6642L3.20726 5.97789C3.45826 4.84896 4.07944 3.83632 4.97204 3.10096C5.86465 2.3656 6.97745 1.94972 8.13356 1.91944C9.28966 1.88915 10.4227 2.24619 11.3526 2.93381C12.2825 3.62142 12.9558 4.60015 13.2656 5.71439L14.6114 10.5566C14.7004 10.872 14.7145 11.2039 14.6528 11.5258C14.5911 11.8477 14.4552 12.1508 14.2558 12.411Z" fill="#252420"/>
</g>
<defs>
<clipPath id="clip0_56_3060">
<rect width="17" height="17" fill="white" transform="translate(0 0.5)"/>
</clipPath>
</defs>
</svg>
