<svg width="17" height="17" viewBox="0 0 17 17" fill="none" xmlns="http://www.w3.org/2000/svg">
<g clip-path="url(#clip0_56_3068)">
<path d="M16.2917 15.5833H3.54167C2.97808 15.5833 2.43758 15.3595 2.03906 14.9609C1.64055 14.5624 1.41667 14.0219 1.41667 13.4583V0.708333C1.41667 0.520472 1.34204 0.340304 1.2092 0.207466C1.07636 0.0746278 0.896195 0 0.708333 0C0.520472 0 0.340304 0.0746278 0.207466 0.207466C0.0746278 0.340304 0 0.520472 0 0.708333L0 13.4583C0.00112473 14.3973 0.374625 15.2975 1.03857 15.9614C1.70252 16.6254 2.6027 16.9989 3.54167 17H16.2917C16.4795 17 16.6597 16.9254 16.7925 16.7925C16.9254 16.6597 17 16.4795 17 16.2917C17 16.1038 16.9254 15.9236 16.7925 15.7908C16.6597 15.658 16.4795 15.5833 16.2917 15.5833Z" fill="#252420"/>
<path d="M4.25032 14.167C4.43819 14.167 4.61835 14.0924 4.75119 13.9595C4.88403 13.8267 4.95866 13.6465 4.95866 13.4587V8.50033C4.95866 8.31246 4.88403 8.1323 4.75119 7.99946C4.61835 7.86662 4.43819 7.79199 4.25032 7.79199C4.06246 7.79199 3.8823 7.86662 3.74946 7.99946C3.61662 8.1323 3.54199 8.31246 3.54199 8.50033V13.4587C3.54199 13.6465 3.61662 13.8267 3.74946 13.9595C3.8823 14.0924 4.06246 14.167 4.25032 14.167Z" fill="#252420"/>
<path d="M7.08301 7.08333V13.4583C7.08301 13.6462 7.15764 13.8264 7.29048 13.9592C7.42331 14.092 7.60348 14.1667 7.79135 14.1667C7.97921 14.1667 8.15938 14.092 8.29222 13.9592C8.42505 13.8264 8.49968 13.6462 8.49968 13.4583V7.08333C8.49968 6.89547 8.42505 6.7153 8.29222 6.58247C8.15938 6.44963 7.97921 6.375 7.79135 6.375C7.60348 6.375 7.42331 6.44963 7.29048 6.58247C7.15764 6.7153 7.08301 6.89547 7.08301 7.08333Z" fill="#252420"/>
<path d="M10.625 9.20833V13.4583C10.625 13.6462 10.6996 13.8264 10.8325 13.9592C10.9653 14.092 11.1455 14.1667 11.3333 14.1667C11.5212 14.1667 11.7014 14.092 11.8342 13.9592C11.967 13.8264 12.0417 13.6462 12.0417 13.4583V9.20833C12.0417 9.02047 11.967 8.8403 11.8342 8.70747C11.7014 8.57463 11.5212 8.5 11.3333 8.5C11.1455 8.5 10.9653 8.57463 10.8325 8.70747C10.6996 8.8403 10.625 9.02047 10.625 9.20833Z" fill="#252420"/>
<path d="M14.167 6.37533V13.4587C14.167 13.6465 14.2416 13.8267 14.3745 13.9595C14.5073 14.0924 14.6875 14.167 14.8753 14.167C15.0632 14.167 15.2434 14.0924 15.3762 13.9595C15.509 13.8267 15.5837 13.6465 15.5837 13.4587V6.37533C15.5837 6.18746 15.509 6.0073 15.3762 5.87446C15.2434 5.74162 15.0632 5.66699 14.8753 5.66699C14.6875 5.66699 14.5073 5.74162 14.3745 5.87446C14.2416 6.0073 14.167 6.18746 14.167 6.37533Z" fill="#252420"/>
<path d="M4.24969 6.37508C4.43753 6.37504 4.61767 6.30039 4.75048 6.16754L7.29056 3.62746C7.42557 3.49884 7.60489 3.4271 7.79135 3.4271C7.97782 3.4271 8.15714 3.49884 8.29214 3.62746L9.83065 5.16596C10.2291 5.56434 10.7695 5.78813 11.333 5.78813C11.8965 5.78813 12.4369 5.56434 12.8354 5.16596L16.7921 1.20921C16.9212 1.07562 16.9926 0.89669 16.991 0.710967C16.9893 0.525245 16.9148 0.347586 16.7835 0.216255C16.6522 0.0849244 16.4745 0.0104297 16.2888 0.00881584C16.1031 0.00720196 15.9242 0.078598 15.7906 0.207627L11.8338 4.16367C11.701 4.29646 11.5208 4.37106 11.333 4.37106C11.1452 4.37106 10.9651 4.29646 10.8322 4.16367L9.29373 2.62588C8.89523 2.2275 8.35483 2.00371 7.79135 2.00371C7.22788 2.00371 6.68747 2.2275 6.28898 2.62588L3.74889 5.16596C3.64986 5.26502 3.58243 5.39122 3.55511 5.5286C3.52779 5.66599 3.54181 5.80839 3.59541 5.9378C3.64901 6.06721 3.73978 6.17783 3.85624 6.25566C3.97269 6.3335 4.10961 6.37505 4.24969 6.37508Z" fill="#252420"/>
</g>
<defs>
<clipPath id="clip0_56_3068">
<rect width="17" height="17" fill="white"/>
</clipPath>
</defs>
</svg>
