<svg width="17" height="18" viewBox="0 0 17 18" fill="none" xmlns="http://www.w3.org/2000/svg">
<g clip-path="url(#clip0_56_3064)">
<path d="M3.896 12.542C4.4828 12.542 4.9585 12.0663 4.9585 11.4795C4.9585 10.8927 4.4828 10.417 3.896 10.417C3.30919 10.417 2.8335 10.8927 2.8335 11.4795C2.8335 12.0663 3.30919 12.542 3.896 12.542Z" fill="#252420"/>
<path d="M13.4583 2.625H3.54167C2.6027 2.62612 1.70252 2.99962 1.03857 3.66357C0.374625 4.32752 0.00112473 5.2277 0 6.16667L0 11.8333C0.00112473 12.7723 0.374625 13.6725 1.03857 14.3364C1.70252 15.0004 2.6027 15.3739 3.54167 15.375H13.4583C14.3973 15.3739 15.2975 15.0004 15.9614 14.3364C16.6254 13.6725 16.9989 12.7723 17 11.8333V6.16667C16.9989 5.2277 16.6254 4.32752 15.9614 3.66357C15.2975 2.99962 14.3973 2.62612 13.4583 2.625ZM3.54167 4.04167H13.4583C14.0219 4.04167 14.5624 4.26555 14.9609 4.66406C15.3595 5.06258 15.5833 5.60308 15.5833 6.16667H1.41667C1.41667 5.60308 1.64055 5.06258 2.03906 4.66406C2.43758 4.26555 2.97808 4.04167 3.54167 4.04167ZM13.4583 13.9583H3.54167C2.97808 13.9583 2.43758 13.7345 2.03906 13.3359C1.64055 12.9374 1.41667 12.3969 1.41667 11.8333V7.58333H15.5833V11.8333C15.5833 12.3969 15.3595 12.9374 14.9609 13.3359C14.5624 13.7345 14.0219 13.9583 13.4583 13.9583Z" fill="#252420"/>
</g>
<defs>
<clipPath id="clip0_56_3064">
<rect width="17" height="17" fill="white" transform="translate(0 0.5)"/>
</clipPath>
</defs>
</svg>
