<svg width="21" height="21" viewBox="0 0 21 21" fill="none" xmlns="http://www.w3.org/2000/svg">
<path d="M17.5624 7.53193H15.4992V5.68253C15.4992 2.10335 13.8501 0 10.5577 0C7.26524 0 5.61656 2.10335 5.61656 5.68219V7.53159H3.43737C2.5304 7.53159 1.79492 8.26707 1.79492 9.17404V18.4276C1.79492 19.1844 2.30997 19.8414 3.04482 20.0227C4.62322 20.412 7.47943 21 10.3357 21C13.2152 21 16.2442 20.4383 17.9116 20.0723C18.6668 19.9067 19.2048 19.2402 19.2048 18.4673V9.17438C19.2048 8.26712 18.4693 7.53193 17.5624 7.53193ZM12.463 12.5516C12.2041 12.638 11.9255 12.4984 11.8392 12.2408C11.7314 11.9186 11.3415 11.5421 10.5988 11.5421C9.98745 11.5421 9.6251 11.9514 9.58307 12.3561C9.5308 12.861 9.94803 13.2562 10.6996 13.4138C12.2271 13.7338 12.6752 14.7576 12.5944 15.5372C12.5109 16.3459 11.8953 16.9816 11.0915 17.1714V17.7383C11.0915 18.0104 10.8708 18.2311 10.5988 18.2311C10.3268 18.2311 10.1061 18.0104 10.1061 17.7383V17.1915C9.15053 17.0289 8.6062 16.408 8.42355 15.8637C8.33718 15.6055 8.47645 15.3263 8.73431 15.2399C8.99382 15.1539 9.27173 15.2931 9.3581 15.5507C9.46583 15.8729 9.85577 16.2494 10.5985 16.2494C11.2098 16.2494 11.5721 15.8401 11.6142 15.4354C11.6664 14.9305 11.2492 14.5353 10.4976 14.3777C8.97015 14.0577 8.52205 13.0338 8.60287 12.2543C8.68634 11.4455 9.30192 10.81 10.1057 10.6201V10.0528C10.1057 9.78083 10.3264 9.56006 10.5984 9.56006C10.8704 9.56006 11.0911 9.78083 11.0911 10.0528V10.5997C12.0467 10.7623 12.591 11.3832 12.7737 11.9275C12.86 12.186 12.7208 12.4649 12.463 12.5516ZM13.0286 7.53193H8.08714V5.18849C8.08714 3.40349 9.07193 2.47092 10.5577 2.47092C12.0435 2.47092 13.0283 3.40349 13.0283 5.18849L13.0286 7.53193Z" fill="#81858C"/>
</svg>
